<svg id="visual" viewBox="0 0 1200 600" width="1200" height="600" xmlns="http://www.w3.org/2000/svg" xmlns:xlink="http://www.w3.org/1999/xlink" version="1.1"><rect x="0" y="0" width="1200" height="600" fill="#f1fcfe"></rect><defs><linearGradient id="grad1_0" x1="50%" y1="0%" x2="100%" y2="100%"><stop offset="10%" stop-color="#aee0e8" stop-opacity="1"></stop><stop offset="90%" stop-color="#aee0e8" stop-opacity="1"></stop></linearGradient></defs><defs><linearGradient id="grad1_1" x1="50%" y1="0%" x2="100%" y2="100%"><stop offset="10%" stop-color="#aee0e8" stop-opacity="1"></stop><stop offset="90%" stop-color="#bce6ec" stop-opacity="1"></stop></linearGradient></defs><defs><linearGradient id="grad1_2" x1="50%" y1="0%" x2="100%" y2="100%"><stop offset="10%" stop-color="#c9ebf1" stop-opacity="1"></stop><stop offset="90%" stop-color="#bce6ec" stop-opacity="1"></stop></linearGradient></defs><defs><linearGradient id="grad1_3" x1="50%" y1="0%" x2="100%" y2="100%"><stop offset="10%" stop-color="#c9ebf1" stop-opacity="1"></stop><stop offset="90%" stop-color="#d7f1f5" stop-opacity="1"></stop></linearGradient></defs><defs><linearGradient id="grad1_4" x1="50%" y1="0%" x2="100%" y2="100%"><stop offset="10%" stop-color="#e4f6fa" stop-opacity="1"></stop><stop offset="90%" stop-color="#d7f1f5" stop-opacity="1"></stop></linearGradient></defs><defs><linearGradient id="grad1_5" x1="50%" y1="0%" x2="100%" y2="100%"><stop offset="10%" stop-color="#e4f6fa" stop-opacity="1"></stop><stop offset="90%" stop-color="#f1fcfe" stop-opacity="1"></stop></linearGradient></defs><defs><linearGradient id="grad2_0" x1="0%" y1="0%" x2="50%" y2="100%"><stop offset="10%" stop-color="#aee0e8" stop-opacity="1"></stop><stop offset="90%" stop-color="#aee0e8" stop-opacity="1"></stop></linearGradient></defs><defs><linearGradient id="grad2_1" x1="0%" y1="0%" x2="50%" y2="100%"><stop offset="10%" stop-color="#bce6ec" stop-opacity="1"></stop><stop offset="90%" stop-color="#aee0e8" stop-opacity="1"></stop></linearGradient></defs><defs><linearGradient id="grad2_2" x1="0%" y1="0%" x2="50%" y2="100%"><stop offset="10%" stop-color="#bce6ec" stop-opacity="1"></stop><stop offset="90%" stop-color="#c9ebf1" stop-opacity="1"></stop></linearGradient></defs><defs><linearGradient id="grad2_3" x1="0%" y1="0%" x2="50%" y2="100%"><stop offset="10%" stop-color="#d7f1f5" stop-opacity="1"></stop><stop offset="90%" stop-color="#c9ebf1" stop-opacity="1"></stop></linearGradient></defs><defs><linearGradient id="grad2_4" x1="0%" y1="0%" x2="50%" y2="100%"><stop offset="10%" stop-color="#d7f1f5" stop-opacity="1"></stop><stop offset="90%" stop-color="#e4f6fa" stop-opacity="1"></stop></linearGradient></defs><defs><linearGradient id="grad2_5" x1="0%" y1="0%" x2="50%" y2="100%"><stop offset="10%" stop-color="#f1fcfe" stop-opacity="1"></stop><stop offset="90%" stop-color="#e4f6fa" stop-opacity="1"></stop></linearGradient></defs><g transform="translate(1200, 0)"><path d="M0 540C-74.8 537.7 -149.6 535.4 -206.6 498.9C-263.7 462.4 -303 391.7 -332.3 332.3C-361.7 273 -381 224.9 -413.9 171.4C-446.8 117.9 -493.4 59 -540 0L0 0Z" fill="#eaf9fc"></path><path d="M0 450C-62.3 448.1 -124.7 446.2 -172.2 415.7C-219.8 385.3 -252.5 326.4 -277 277C-301.4 227.5 -317.5 187.5 -344.9 142.9C-372.4 98.3 -411.2 49.1 -450 0L0 0Z" fill="#ddf4f7"></path><path d="M0 360C-49.9 358.5 -99.7 356.9 -137.8 332.6C-175.8 308.3 -202 261.1 -221.6 221.6C-241.1 182 -254 150 -275.9 114.3C-297.9 78.6 -328.9 39.3 -360 0L0 0Z" fill="#d0eef3"></path><path d="M0 270C-37.4 268.8 -74.8 267.7 -103.3 249.4C-131.9 231.2 -151.5 195.9 -166.2 166.2C-180.8 136.5 -190.5 112.5 -206.9 85.7C-223.4 59 -246.7 29.5 -270 0L0 0Z" fill="#c3e8ef"></path><path d="M0 180C-24.9 179.2 -49.9 178.5 -68.9 166.3C-87.9 154.1 -101 130.6 -110.8 110.8C-120.6 91 -127 75 -138 57.1C-148.9 39.3 -164.5 19.7 -180 0L0 0Z" fill="#b5e3ea"></path><path d="M0 90C-12.5 89.6 -24.9 89.2 -34.4 83.1C-44 77.1 -50.5 65.3 -55.4 55.4C-60.3 45.5 -63.5 37.5 -69 28.6C-74.5 19.7 -82.2 9.8 -90 0L0 0Z" fill="#aee0e8"></path></g><g transform="translate(0, 600)"><path d="M0 -540C59.7 -506 119.5 -472 186.7 -450.9C254 -429.7 328.8 -421.4 381.8 -381.8C434.8 -342.2 466 -271.3 488.7 -202.4C511.5 -133.6 525.7 -66.8 540 0L0 0Z" fill="#eaf9fc"></path><path d="M0 -450C49.8 -421.7 99.6 -393.3 155.6 -375.7C211.7 -358.1 274 -351.2 318.2 -318.2C362.4 -285.2 388.3 -226.1 407.3 -168.7C426.2 -111.3 438.1 -55.7 450 0L0 0Z" fill="#ddf4f7"></path><path d="M0 -360C39.8 -337.3 79.6 -314.7 124.5 -300.6C169.4 -286.5 219.2 -281 254.6 -254.6C289.9 -228.2 310.7 -180.9 325.8 -135C341 -89.1 350.5 -44.5 360 0L0 0Z" fill="#d0eef3"></path><path d="M0 -270C29.9 -253 59.7 -236 93.4 -225.4C127 -214.9 164.4 -210.7 190.9 -190.9C217.4 -171.1 233 -135.7 244.4 -101.2C255.7 -66.8 262.9 -33.4 270 0L0 0Z" fill="#c3e8ef"></path><path d="M0 -180C19.9 -168.7 39.8 -157.3 62.2 -150.3C84.7 -143.2 109.6 -140.5 127.3 -127.3C144.9 -114.1 155.3 -90.4 162.9 -67.5C170.5 -44.5 175.2 -22.3 180 0L0 0Z" fill="#b5e3ea"></path><path d="M0 -90C10 -84.3 19.9 -78.7 31.1 -75.1C42.3 -71.6 54.8 -70.2 63.6 -63.6C72.5 -57 77.7 -45.2 81.5 -33.7C85.2 -22.3 87.6 -11.1 90 0L0 0Z" fill="#aee0e8"></path></g></svg>