<svg id="visual" viewBox="0 0 1200 600" width="1200" height="600" xmlns="http://www.w3.org/2000/svg" xmlns:xlink="http://www.w3.org/1999/xlink" version="1.1"><rect x="0" y="0" width="1200" height="600" fill="#f1fcfe"></rect><defs><linearGradient id="grad1_0" x1="50%" y1="0%" x2="100%" y2="100%"><stop offset="10%" stop-color="#aee0e8" stop-opacity="1"></stop><stop offset="90%" stop-color="#aee0e8" stop-opacity="1"></stop></linearGradient></defs><defs><linearGradient id="grad1_1" x1="50%" y1="0%" x2="100%" y2="100%"><stop offset="10%" stop-color="#aee0e8" stop-opacity="1"></stop><stop offset="90%" stop-color="#bce6ec" stop-opacity="1"></stop></linearGradient></defs><defs><linearGradient id="grad1_2" x1="50%" y1="0%" x2="100%" y2="100%"><stop offset="10%" stop-color="#c9ebf1" stop-opacity="1"></stop><stop offset="90%" stop-color="#bce6ec" stop-opacity="1"></stop></linearGradient></defs><defs><linearGradient id="grad1_3" x1="50%" y1="0%" x2="100%" y2="100%"><stop offset="10%" stop-color="#c9ebf1" stop-opacity="1"></stop><stop offset="90%" stop-color="#d7f1f5" stop-opacity="1"></stop></linearGradient></defs><defs><linearGradient id="grad1_4" x1="50%" y1="0%" x2="100%" y2="100%"><stop offset="10%" stop-color="#e4f6fa" stop-opacity="1"></stop><stop offset="90%" stop-color="#d7f1f5" stop-opacity="1"></stop></linearGradient></defs><defs><linearGradient id="grad1_5" x1="50%" y1="0%" x2="100%" y2="100%"><stop offset="10%" stop-color="#e4f6fa" stop-opacity="1"></stop><stop offset="90%" stop-color="#f1fcfe" stop-opacity="1"></stop></linearGradient></defs><defs><linearGradient id="grad2_0" x1="0%" y1="0%" x2="50%" y2="100%"><stop offset="10%" stop-color="#aee0e8" stop-opacity="1"></stop><stop offset="90%" stop-color="#aee0e8" stop-opacity="1"></stop></linearGradient></defs><defs><linearGradient id="grad2_1" x1="0%" y1="0%" x2="50%" y2="100%"><stop offset="10%" stop-color="#bce6ec" stop-opacity="1"></stop><stop offset="90%" stop-color="#aee0e8" stop-opacity="1"></stop></linearGradient></defs><defs><linearGradient id="grad2_2" x1="0%" y1="0%" x2="50%" y2="100%"><stop offset="10%" stop-color="#bce6ec" stop-opacity="1"></stop><stop offset="90%" stop-color="#c9ebf1" stop-opacity="1"></stop></linearGradient></defs><defs><linearGradient id="grad2_3" x1="0%" y1="0%" x2="50%" y2="100%"><stop offset="10%" stop-color="#d7f1f5" stop-opacity="1"></stop><stop offset="90%" stop-color="#c9ebf1" stop-opacity="1"></stop></linearGradient></defs><defs><linearGradient id="grad2_4" x1="0%" y1="0%" x2="50%" y2="100%"><stop offset="10%" stop-color="#d7f1f5" stop-opacity="1"></stop><stop offset="90%" stop-color="#e4f6fa" stop-opacity="1"></stop></linearGradient></defs><defs><linearGradient id="grad2_5" x1="0%" y1="0%" x2="50%" y2="100%"><stop offset="10%" stop-color="#f1fcfe" stop-opacity="1"></stop><stop offset="90%" stop-color="#e4f6fa" stop-opacity="1"></stop></linearGradient></defs><g transform="translate(1200, 0)"><path d="M0 360C-40.4 342.8 -80.8 325.5 -129.3 312.3C-177.9 299 -234.5 289.7 -254.6 254.6C-274.7 219.4 -258.3 158.5 -269.8 111.7C-281.3 65 -320.6 32.5 -360 0L0 0Z" fill="#eaf9fc"></path><path d="M0 300C-33.7 285.6 -67.4 271.3 -107.8 260.2C-148.2 249.2 -195.4 241.4 -212.1 212.1C-228.9 182.9 -215.2 132.1 -224.8 93.1C-234.4 54.2 -267.2 27.1 -300 0L0 0Z" fill="#ddf4f7"></path><path d="M0 240C-26.9 228.5 -53.9 217 -86.2 208.2C-118.6 199.3 -156.3 193.1 -169.7 169.7C-183.1 146.3 -172.2 105.6 -179.8 74.5C-187.5 43.3 -213.8 21.7 -240 0L0 0Z" fill="#d0eef3"></path><path d="M0 180C-20.2 171.4 -40.4 162.8 -64.7 156.1C-88.9 149.5 -117.2 144.8 -127.3 127.3C-137.3 109.7 -129.1 79.2 -134.9 55.9C-140.6 32.5 -160.3 16.3 -180 0L0 0Z" fill="#c3e8ef"></path><path d="M0 120C-13.5 114.3 -26.9 108.5 -43.1 104.1C-59.3 99.7 -78.2 96.6 -84.9 84.9C-91.6 73.1 -86.1 52.8 -89.9 37.2C-93.8 21.7 -106.9 10.8 -120 0L0 0Z" fill="#b5e3ea"></path><path d="M0 60C-6.7 57.1 -13.5 54.3 -21.6 52C-29.6 49.8 -39.1 48.3 -42.4 42.4C-45.8 36.6 -43 26.4 -45 18.6C-46.9 10.8 -53.4 5.4 -60 0L0 0Z" fill="#aee0e8"></path></g><g transform="translate(0, 600)"><path d="M0 -360C45.4 -344.7 90.7 -329.3 127.1 -306.7C163.4 -284.1 190.6 -254.2 227 -227C263.4 -199.7 308.9 -175.2 332.6 -137.8C356.3 -100.4 358.1 -50.2 360 0L0 0Z" fill="#eaf9fc"></path><path d="M0 -300C37.8 -287.2 75.6 -274.5 105.9 -255.6C136.1 -236.8 158.8 -211.9 189.2 -189.2C219.5 -166.5 257.4 -146 277.2 -114.8C296.9 -83.6 298.5 -41.8 300 0L0 0Z" fill="#ddf4f7"></path><path d="M0 -240C30.2 -229.8 60.5 -219.6 84.7 -204.5C108.9 -189.4 127.1 -169.5 151.3 -151.3C175.6 -133.2 205.9 -116.8 221.7 -91.8C237.5 -66.9 238.8 -33.5 240 0L0 0Z" fill="#d0eef3"></path><path d="M0 -180C22.7 -172.3 45.4 -164.7 63.5 -153.4C81.7 -142.1 95.3 -127.1 113.5 -113.5C131.7 -99.9 154.5 -87.6 166.3 -68.9C178.1 -50.2 179.1 -25.1 180 0L0 0Z" fill="#c3e8ef"></path><path d="M0 -120C15.1 -114.9 30.2 -109.8 42.4 -102.2C54.5 -94.7 63.5 -84.7 75.7 -75.7C87.8 -66.6 103 -58.4 110.9 -45.9C118.8 -33.5 119.4 -16.7 120 0L0 0Z" fill="#b5e3ea"></path><path d="M0 -60C7.6 -57.4 15.1 -54.9 21.2 -51.1C27.2 -47.4 31.8 -42.4 37.8 -37.8C43.9 -33.3 51.5 -29.2 55.4 -23C59.4 -16.7 59.7 -8.4 60 0L0 0Z" fill="#aee0e8"></path></g></svg>