<svg id="visual" viewBox="0 0 1200 600" width="1200" height="600" xmlns="http://www.w3.org/2000/svg" xmlns:xlink="http://www.w3.org/1999/xlink" version="1.1"><rect x="0" y="0" width="1200" height="600" fill="#f1fcfe"></rect><defs><linearGradient id="grad1_0" x1="50%" y1="0%" x2="100%" y2="100%"><stop offset="10%" stop-color="#aee0e8" stop-opacity="1"></stop><stop offset="90%" stop-color="#aee0e8" stop-opacity="1"></stop></linearGradient></defs><defs><linearGradient id="grad1_1" x1="50%" y1="0%" x2="100%" y2="100%"><stop offset="10%" stop-color="#aee0e8" stop-opacity="1"></stop><stop offset="90%" stop-color="#bce6ec" stop-opacity="1"></stop></linearGradient></defs><defs><linearGradient id="grad1_2" x1="50%" y1="0%" x2="100%" y2="100%"><stop offset="10%" stop-color="#c9ebf1" stop-opacity="1"></stop><stop offset="90%" stop-color="#bce6ec" stop-opacity="1"></stop></linearGradient></defs><defs><linearGradient id="grad1_3" x1="50%" y1="0%" x2="100%" y2="100%"><stop offset="10%" stop-color="#c9ebf1" stop-opacity="1"></stop><stop offset="90%" stop-color="#d7f1f5" stop-opacity="1"></stop></linearGradient></defs><defs><linearGradient id="grad1_4" x1="50%" y1="0%" x2="100%" y2="100%"><stop offset="10%" stop-color="#e4f6fa" stop-opacity="1"></stop><stop offset="90%" stop-color="#d7f1f5" stop-opacity="1"></stop></linearGradient></defs><defs><linearGradient id="grad1_5" x1="50%" y1="0%" x2="100%" y2="100%"><stop offset="10%" stop-color="#e4f6fa" stop-opacity="1"></stop><stop offset="90%" stop-color="#f1fcfe" stop-opacity="1"></stop></linearGradient></defs><defs><linearGradient id="grad2_0" x1="0%" y1="0%" x2="50%" y2="100%"><stop offset="10%" stop-color="#aee0e8" stop-opacity="1"></stop><stop offset="90%" stop-color="#aee0e8" stop-opacity="1"></stop></linearGradient></defs><defs><linearGradient id="grad2_1" x1="0%" y1="0%" x2="50%" y2="100%"><stop offset="10%" stop-color="#bce6ec" stop-opacity="1"></stop><stop offset="90%" stop-color="#aee0e8" stop-opacity="1"></stop></linearGradient></defs><defs><linearGradient id="grad2_2" x1="0%" y1="0%" x2="50%" y2="100%"><stop offset="10%" stop-color="#bce6ec" stop-opacity="1"></stop><stop offset="90%" stop-color="#c9ebf1" stop-opacity="1"></stop></linearGradient></defs><defs><linearGradient id="grad2_3" x1="0%" y1="0%" x2="50%" y2="100%"><stop offset="10%" stop-color="#d7f1f5" stop-opacity="1"></stop><stop offset="90%" stop-color="#c9ebf1" stop-opacity="1"></stop></linearGradient></defs><defs><linearGradient id="grad2_4" x1="0%" y1="0%" x2="50%" y2="100%"><stop offset="10%" stop-color="#d7f1f5" stop-opacity="1"></stop><stop offset="90%" stop-color="#e4f6fa" stop-opacity="1"></stop></linearGradient></defs><defs><linearGradient id="grad2_5" x1="0%" y1="0%" x2="50%" y2="100%"><stop offset="10%" stop-color="#f1fcfe" stop-opacity="1"></stop><stop offset="90%" stop-color="#e4f6fa" stop-opacity="1"></stop></linearGradient></defs><g transform="translate(1200, 0)"><path d="M0 360C-47.2 354.8 -94.5 349.6 -137.8 332.6C-181 315.6 -220.3 286.8 -252.4 252.4C-284.5 218.1 -309.4 178.1 -326.1 135.1C-342.9 92.1 -351.4 46 -360 0L0 0Z" fill="#eaf9fc"></path><path d="M0 300C-39.4 295.7 -78.7 291.3 -114.8 277.2C-150.9 263 -183.6 239 -210.4 210.4C-237.1 181.7 -257.8 148.4 -271.8 112.6C-285.7 76.7 -292.9 38.4 -300 0L0 0Z" fill="#ddf4f7"></path><path d="M0 240C-31.5 236.5 -63 233.1 -91.8 221.7C-120.7 210.4 -146.9 191.2 -168.3 168.3C-189.7 145.4 -206.3 118.7 -217.4 90.1C-228.6 61.4 -234.3 30.7 -240 0L0 0Z" fill="#d0eef3"></path><path d="M0 180C-23.6 177.4 -47.2 174.8 -68.9 166.3C-90.5 157.8 -110.2 143.4 -126.2 126.2C-142.3 109 -154.7 89 -163.1 67.5C-171.4 46 -175.7 23 -180 0L0 0Z" fill="#c3e8ef"></path><path d="M0 120C-15.7 118.3 -31.5 116.5 -45.9 110.9C-60.3 105.2 -73.4 95.6 -84.1 84.1C-94.8 72.7 -103.1 59.4 -108.7 45C-114.3 30.7 -117.1 15.3 -120 0L0 0Z" fill="#b5e3ea"></path><path d="M0 60C-7.9 59.1 -15.7 58.3 -23 55.4C-30.2 52.6 -36.7 47.8 -42.1 42.1C-47.4 36.3 -51.6 29.7 -54.4 22.5C-57.1 15.3 -58.6 7.7 -60 0L0 0Z" fill="#aee0e8"></path></g><g transform="translate(0, 600)"><path d="M0 -360C44.6 -353.1 89.3 -346.2 137.4 -331.7C185.5 -317.1 237.2 -294.8 254.6 -254.6C272 -214.3 255.1 -156 267 -110.6C278.9 -65.2 319.4 -32.6 360 0L0 0Z" fill="#eaf9fc"></path><path d="M0 -300C37.2 -294.3 74.4 -288.5 114.5 -276.4C154.6 -264.2 197.6 -245.7 212.1 -212.1C226.6 -178.6 212.6 -130 222.5 -92.2C232.4 -54.3 266.2 -27.2 300 0L0 0Z" fill="#ddf4f7"></path><path d="M0 -240C29.8 -235.4 59.5 -230.8 91.6 -221.1C123.7 -211.4 158.1 -196.6 169.7 -169.7C181.3 -142.9 170.1 -104 178 -73.7C185.9 -43.4 213 -21.7 240 0L0 0Z" fill="#d0eef3"></path><path d="M0 -180C22.3 -176.6 44.6 -173.1 68.7 -165.8C92.8 -158.5 118.6 -147.4 127.3 -127.3C136 -107.1 127.6 -78 133.5 -55.3C139.4 -32.6 159.7 -16.3 180 0L0 0Z" fill="#c3e8ef"></path><path d="M0 -120C14.9 -117.7 29.8 -115.4 45.8 -110.6C61.8 -105.7 79.1 -98.3 84.9 -84.9C90.7 -71.4 85 -52 89 -36.9C93 -21.7 106.5 -10.9 120 0L0 0Z" fill="#b5e3ea"></path><path d="M0 -60C7.4 -58.9 14.9 -57.7 22.9 -55.3C30.9 -52.8 39.5 -49.1 42.4 -42.4C45.3 -35.7 42.5 -26 44.5 -18.4C46.5 -10.9 53.2 -5.4 60 0L0 0Z" fill="#aee0e8"></path></g></svg>