<svg id="visual" viewBox="0 0 1200 600" width="1200" height="600" xmlns="http://www.w3.org/2000/svg" xmlns:xlink="http://www.w3.org/1999/xlink" version="1.1"><rect x="0" y="0" width="1200" height="600" fill="#f1fcfe"></rect><defs><linearGradient id="grad1_0" x1="50%" y1="0%" x2="100%" y2="100%"><stop offset="10%" stop-color="#aee0e8" stop-opacity="1"></stop><stop offset="90%" stop-color="#aee0e8" stop-opacity="1"></stop></linearGradient></defs><defs><linearGradient id="grad1_1" x1="50%" y1="0%" x2="100%" y2="100%"><stop offset="10%" stop-color="#aee0e8" stop-opacity="1"></stop><stop offset="90%" stop-color="#bce6ec" stop-opacity="1"></stop></linearGradient></defs><defs><linearGradient id="grad1_2" x1="50%" y1="0%" x2="100%" y2="100%"><stop offset="10%" stop-color="#c9ebf1" stop-opacity="1"></stop><stop offset="90%" stop-color="#bce6ec" stop-opacity="1"></stop></linearGradient></defs><defs><linearGradient id="grad1_3" x1="50%" y1="0%" x2="100%" y2="100%"><stop offset="10%" stop-color="#c9ebf1" stop-opacity="1"></stop><stop offset="90%" stop-color="#d7f1f5" stop-opacity="1"></stop></linearGradient></defs><defs><linearGradient id="grad1_4" x1="50%" y1="0%" x2="100%" y2="100%"><stop offset="10%" stop-color="#e4f6fa" stop-opacity="1"></stop><stop offset="90%" stop-color="#d7f1f5" stop-opacity="1"></stop></linearGradient></defs><defs><linearGradient id="grad1_5" x1="50%" y1="0%" x2="100%" y2="100%"><stop offset="10%" stop-color="#e4f6fa" stop-opacity="1"></stop><stop offset="90%" stop-color="#f1fcfe" stop-opacity="1"></stop></linearGradient></defs><defs><linearGradient id="grad2_0" x1="0%" y1="0%" x2="50%" y2="100%"><stop offset="10%" stop-color="#aee0e8" stop-opacity="1"></stop><stop offset="90%" stop-color="#aee0e8" stop-opacity="1"></stop></linearGradient></defs><defs><linearGradient id="grad2_1" x1="0%" y1="0%" x2="50%" y2="100%"><stop offset="10%" stop-color="#bce6ec" stop-opacity="1"></stop><stop offset="90%" stop-color="#aee0e8" stop-opacity="1"></stop></linearGradient></defs><defs><linearGradient id="grad2_2" x1="0%" y1="0%" x2="50%" y2="100%"><stop offset="10%" stop-color="#bce6ec" stop-opacity="1"></stop><stop offset="90%" stop-color="#c9ebf1" stop-opacity="1"></stop></linearGradient></defs><defs><linearGradient id="grad2_3" x1="0%" y1="0%" x2="50%" y2="100%"><stop offset="10%" stop-color="#d7f1f5" stop-opacity="1"></stop><stop offset="90%" stop-color="#c9ebf1" stop-opacity="1"></stop></linearGradient></defs><defs><linearGradient id="grad2_4" x1="0%" y1="0%" x2="50%" y2="100%"><stop offset="10%" stop-color="#d7f1f5" stop-opacity="1"></stop><stop offset="90%" stop-color="#e4f6fa" stop-opacity="1"></stop></linearGradient></defs><defs><linearGradient id="grad2_5" x1="0%" y1="0%" x2="50%" y2="100%"><stop offset="10%" stop-color="#f1fcfe" stop-opacity="1"></stop><stop offset="90%" stop-color="#e4f6fa" stop-opacity="1"></stop></linearGradient></defs><g transform="translate(1200, 0)"><path d="M0 540C-75.4 535.7 -150.8 531.3 -205.5 496.1C-260.2 460.9 -294.2 394.9 -345.1 345.1C-395.9 295.2 -463.6 261.5 -498.9 206.6C-534.2 151.8 -537.1 75.9 -540 0L0 0Z" fill="#eaf9fc"></path><path d="M0 450C-62.8 446.4 -125.7 442.8 -171.3 413.4C-216.8 384.1 -245.2 329.1 -287.6 287.6C-329.9 246 -386.3 217.9 -415.7 172.2C-445.2 126.5 -447.6 63.3 -450 0L0 0Z" fill="#ddf4f7"></path><path d="M0 360C-50.3 357.1 -100.5 354.2 -137 330.7C-173.5 307.3 -196.1 263.3 -230 230C-263.9 196.8 -309.1 174.3 -332.6 137.8C-356.1 101.2 -358.1 50.6 -360 0L0 0Z" fill="#d0eef3"></path><path d="M0 270C-37.7 267.8 -75.4 265.7 -102.8 248.1C-130.1 230.5 -147.1 197.5 -172.5 172.5C-198 147.6 -231.8 130.7 -249.4 103.3C-267.1 75.9 -268.5 38 -270 0L0 0Z" fill="#c3e8ef"></path><path d="M0 180C-25.1 178.6 -50.3 177.1 -68.5 165.4C-86.7 153.6 -98.1 131.6 -115 115C-132 98.4 -154.5 87.2 -166.3 68.9C-178.1 50.6 -179 25.3 -180 0L0 0Z" fill="#b5e3ea"></path><path d="M0 90C-12.6 89.3 -25.1 88.6 -34.3 82.7C-43.4 76.8 -49 65.8 -57.5 57.5C-66 49.2 -77.3 43.6 -83.1 34.4C-89 25.3 -89.5 12.7 -90 0L0 0Z" fill="#aee0e8"></path></g><g transform="translate(0, 600)"><path d="M0 -540C78.7 -540 157.4 -540.1 206.6 -498.9C255.9 -457.7 275.6 -375.4 323.9 -323.9C372.1 -272.3 448.9 -251.7 489.7 -202.8C530.4 -154 535.2 -77 540 0L0 0Z" fill="#eaf9fc"></path><path d="M0 -450C65.6 -450 131.2 -450 172.2 -415.7C213.2 -381.4 229.7 -312.8 269.9 -269.9C310.1 -226.9 374.1 -209.7 408 -169C442 -128.3 446 -64.2 450 0L0 0Z" fill="#ddf4f7"></path><path d="M0 -360C52.5 -360 105 -360 137.8 -332.6C170.6 -305.2 183.7 -250.2 215.9 -215.9C248.1 -181.6 299.3 -167.8 326.4 -135.2C353.6 -102.7 356.8 -51.3 360 0L0 0Z" fill="#d0eef3"></path><path d="M0 -270C39.4 -270 78.7 -270 103.3 -249.4C127.9 -228.9 137.8 -187.7 161.9 -161.9C186.1 -136.2 224.4 -125.8 244.8 -101.4C265.2 -77 267.6 -38.5 270 0L0 0Z" fill="#c3e8ef"></path><path d="M0 -180C26.2 -180 52.5 -180 68.9 -166.3C85.3 -152.6 91.9 -125.1 108 -108C124 -90.8 149.6 -83.9 163.2 -67.6C176.8 -51.3 178.4 -25.7 180 0L0 0Z" fill="#b5e3ea"></path><path d="M0 -90C13.1 -90 26.2 -90 34.4 -83.1C42.6 -76.3 45.9 -62.6 54 -54C62 -45.4 74.8 -41.9 81.6 -33.8C88.4 -25.7 89.2 -12.8 90 0L0 0Z" fill="#aee0e8"></path></g></svg>