<svg id="visual" viewBox="0 0 1200 600" width="1200" height="600" xmlns="http://www.w3.org/2000/svg" xmlns:xlink="http://www.w3.org/1999/xlink" version="1.1"><rect x="0" y="0" width="1200" height="600" fill="#f1fcfe"></rect><defs><linearGradient id="grad1_0" x1="50%" y1="0%" x2="100%" y2="100%"><stop offset="10%" stop-color="#aee0e8" stop-opacity="1"></stop><stop offset="90%" stop-color="#aee0e8" stop-opacity="1"></stop></linearGradient></defs><defs><linearGradient id="grad1_1" x1="50%" y1="0%" x2="100%" y2="100%"><stop offset="10%" stop-color="#aee0e8" stop-opacity="1"></stop><stop offset="90%" stop-color="#bce6ec" stop-opacity="1"></stop></linearGradient></defs><defs><linearGradient id="grad1_2" x1="50%" y1="0%" x2="100%" y2="100%"><stop offset="10%" stop-color="#c9ebf1" stop-opacity="1"></stop><stop offset="90%" stop-color="#bce6ec" stop-opacity="1"></stop></linearGradient></defs><defs><linearGradient id="grad1_3" x1="50%" y1="0%" x2="100%" y2="100%"><stop offset="10%" stop-color="#c9ebf1" stop-opacity="1"></stop><stop offset="90%" stop-color="#d7f1f5" stop-opacity="1"></stop></linearGradient></defs><defs><linearGradient id="grad1_4" x1="50%" y1="0%" x2="100%" y2="100%"><stop offset="10%" stop-color="#e4f6fa" stop-opacity="1"></stop><stop offset="90%" stop-color="#d7f1f5" stop-opacity="1"></stop></linearGradient></defs><defs><linearGradient id="grad1_5" x1="50%" y1="0%" x2="100%" y2="100%"><stop offset="10%" stop-color="#e4f6fa" stop-opacity="1"></stop><stop offset="90%" stop-color="#f1fcfe" stop-opacity="1"></stop></linearGradient></defs><defs><linearGradient id="grad2_0" x1="0%" y1="0%" x2="50%" y2="100%"><stop offset="10%" stop-color="#aee0e8" stop-opacity="1"></stop><stop offset="90%" stop-color="#aee0e8" stop-opacity="1"></stop></linearGradient></defs><defs><linearGradient id="grad2_1" x1="0%" y1="0%" x2="50%" y2="100%"><stop offset="10%" stop-color="#bce6ec" stop-opacity="1"></stop><stop offset="90%" stop-color="#aee0e8" stop-opacity="1"></stop></linearGradient></defs><defs><linearGradient id="grad2_2" x1="0%" y1="0%" x2="50%" y2="100%"><stop offset="10%" stop-color="#bce6ec" stop-opacity="1"></stop><stop offset="90%" stop-color="#c9ebf1" stop-opacity="1"></stop></linearGradient></defs><defs><linearGradient id="grad2_3" x1="0%" y1="0%" x2="50%" y2="100%"><stop offset="10%" stop-color="#d7f1f5" stop-opacity="1"></stop><stop offset="90%" stop-color="#c9ebf1" stop-opacity="1"></stop></linearGradient></defs><defs><linearGradient id="grad2_4" x1="0%" y1="0%" x2="50%" y2="100%"><stop offset="10%" stop-color="#d7f1f5" stop-opacity="1"></stop><stop offset="90%" stop-color="#e4f6fa" stop-opacity="1"></stop></linearGradient></defs><defs><linearGradient id="grad2_5" x1="0%" y1="0%" x2="50%" y2="100%"><stop offset="10%" stop-color="#f1fcfe" stop-opacity="1"></stop><stop offset="90%" stop-color="#e4f6fa" stop-opacity="1"></stop></linearGradient></defs><g transform="translate(1200, 0)"><path d="M0 360C-41.9 345 -83.8 330 -130.9 316C-178 301.9 -230.2 288.7 -254.6 254.6C-278.9 220.4 -275.3 165.3 -288.3 119.4C-301.2 73.5 -330.6 36.7 -360 0L0 0Z" fill="#eaf9fc"></path><path d="M0 300C-34.9 287.5 -69.8 275 -109.1 263.3C-148.3 251.6 -191.8 240.6 -212.1 212.1C-232.4 183.7 -229.4 137.8 -240.2 99.5C-251 61.2 -275.5 30.6 -300 0L0 0Z" fill="#ddf4f7"></path><path d="M0 240C-27.9 230 -55.9 220 -87.3 210.6C-118.6 201.3 -153.5 192.5 -169.7 169.7C-185.9 146.9 -183.6 110.2 -192.2 79.6C-200.8 49 -220.4 24.5 -240 0L0 0Z" fill="#d0eef3"></path><path d="M0 180C-20.9 172.5 -41.9 165 -65.4 158C-89 150.9 -115.1 144.4 -127.3 127.3C-139.5 110.2 -137.7 82.7 -144.1 59.7C-150.6 36.7 -165.3 18.4 -180 0L0 0Z" fill="#c3e8ef"></path><path d="M0 120C-14 115 -27.9 110 -43.6 105.3C-59.3 100.6 -76.7 96.2 -84.9 84.9C-93 73.5 -91.8 55.1 -96.1 39.8C-100.4 24.5 -110.2 12.2 -120 0L0 0Z" fill="#b5e3ea"></path><path d="M0 60C-7 57.5 -14 55 -21.8 52.7C-29.7 50.3 -38.4 48.1 -42.4 42.4C-46.5 36.7 -45.9 27.6 -48 19.9C-50.2 12.2 -55.1 6.1 -60 0L0 0Z" fill="#aee0e8"></path></g><g transform="translate(0, 600)"><path d="M0 -360C46.1 -350.4 92.3 -340.7 133.6 -322.4C174.9 -304.2 211.3 -277.2 246.1 -246.1C280.8 -214.9 313.9 -179.5 332.6 -137.8C351.3 -96 355.7 -48 360 0L0 0Z" fill="#eaf9fc"></path><path d="M0 -300C38.4 -292 76.9 -283.9 111.3 -268.7C145.7 -253.5 176.1 -231 205.1 -205.1C234 -179.1 261.6 -149.6 277.2 -114.8C292.8 -80 296.4 -40 300 0L0 0Z" fill="#ddf4f7"></path><path d="M0 -240C30.8 -233.6 61.5 -227.1 89 -215C116.6 -202.8 140.9 -184.8 164 -164C187.2 -143.3 209.3 -119.7 221.7 -91.8C234.2 -64 237.1 -32 240 0L0 0Z" fill="#d0eef3"></path><path d="M0 -180C23.1 -175.2 46.1 -170.4 66.8 -161.2C87.4 -152.1 105.7 -138.6 123 -123C140.4 -107.5 156.9 -89.7 166.3 -68.9C175.7 -48 177.8 -24 180 0L0 0Z" fill="#c3e8ef"></path><path d="M0 -120C15.4 -116.8 30.8 -113.6 44.5 -107.5C58.3 -101.4 70.4 -92.4 82 -82C93.6 -71.6 104.6 -59.8 110.9 -45.9C117.1 -32 118.6 -16 120 0L0 0Z" fill="#b5e3ea"></path><path d="M0 -60C7.7 -58.4 15.4 -56.8 22.3 -53.7C29.1 -50.7 35.2 -46.2 41 -41C46.8 -35.8 52.3 -29.9 55.4 -23C58.6 -16 59.3 -8 60 0L0 0Z" fill="#aee0e8"></path></g></svg>