<svg id="visual" viewBox="0 0 960 540" width="960" height="540" xmlns="http://www.w3.org/2000/svg" xmlns:xlink="http://www.w3.org/1999/xlink" version="1.1"><path d="M0 28L17.8 27.2C35.7 26.3 71.3 24.7 106.8 27.3C142.3 30 177.7 37 213.2 37C248.7 37 284.3 30 320 26.5C355.7 23 391.3 23 426.8 21.2C462.3 19.3 497.7 15.7 533.2 17.3C568.7 19 604.3 26 640 27.8C675.7 29.7 711.3 26.3 746.8 24.7C782.3 23 817.7 23 853.2 24.7C888.7 26.3 924.3 29.7 942.2 31.3L960 33L960 0L942.2 0C924.3 0 888.7 0 853.2 0C817.7 0 782.3 0 746.8 0C711.3 0 675.7 0 640 0C604.3 0 568.7 0 533.2 0C497.7 0 462.3 0 426.8 0C391.3 0 355.7 0 320 0C284.3 0 248.7 0 213.2 0C177.7 0 142.3 0 106.8 0C71.3 0 35.7 0 17.8 0L0 0Z" fill="#f1fcfe"></path><path d="M0 50L17.8 51.7C35.7 53.3 71.3 56.7 106.8 59.3C142.3 62 177.7 64 213.2 63.2C248.7 62.3 284.3 58.7 320 54.2C355.7 49.7 391.3 44.3 426.8 40.7C462.3 37 497.7 35 533.2 40.3C568.7 45.7 604.3 58.3 640 60.2C675.7 62 711.3 53 746.8 51.2C782.3 49.3 817.7 54.7 853.2 54.7C888.7 54.7 924.3 49.3 942.2 46.7L960 44L960 31L942.2 29.3C924.3 27.7 888.7 24.3 853.2 22.7C817.7 21 782.3 21 746.8 22.7C711.3 24.3 675.7 27.7 640 25.8C604.3 24 568.7 17 533.2 15.3C497.7 13.7 462.3 17.3 426.8 19.2C391.3 21 355.7 21 320 24.5C284.3 28 248.7 35 213.2 35C177.7 35 142.3 28 106.8 25.3C71.3 22.7 35.7 24.3 17.8 25.2L0 26Z" fill="#ebf9fc"></path><path d="M0 104L17.8 100.3C35.7 96.7 71.3 89.3 106.8 92.8C142.3 96.3 177.7 110.7 213.2 117C248.7 123.3 284.3 121.7 320 116.3C355.7 111 391.3 102 426.8 98.3C462.3 94.7 497.7 96.3 533.2 99.8C568.7 103.3 604.3 108.7 640 102.3C675.7 96 711.3 78 746.8 70.8C782.3 63.7 817.7 67.3 853.2 73.7C888.7 80 924.3 89 942.2 93.5L960 98L960 42L942.2 44.7C924.3 47.3 888.7 52.7 853.2 52.7C817.7 52.7 782.3 47.3 746.8 49.2C711.3 51 675.7 60 640 58.2C604.3 56.3 568.7 43.7 533.2 38.3C497.7 33 462.3 35 426.8 38.7C391.3 42.3 355.7 47.7 320 52.2C284.3 56.7 248.7 60.3 213.2 61.2C177.7 62 142.3 60 106.8 57.3C71.3 54.7 35.7 51.3 17.8 49.7L0 48Z" fill="#e5f7fa"></path><path d="M0 147L17.8 138.8C35.7 130.7 71.3 114.3 106.8 114.3C142.3 114.3 177.7 130.7 213.2 139.7C248.7 148.7 284.3 150.3 320 146.7C355.7 143 391.3 134 426.8 129.5C462.3 125 497.7 125 533.2 126.8C568.7 128.7 604.3 132.3 640 127.8C675.7 123.3 711.3 110.7 746.8 110.7C782.3 110.7 817.7 123.3 853.2 136C888.7 148.7 924.3 161.3 942.2 167.7L960 174L960 96L942.2 91.5C924.3 87 888.7 78 853.2 71.7C817.7 65.3 782.3 61.7 746.8 68.8C711.3 76 675.7 94 640 100.3C604.3 106.7 568.7 101.3 533.2 97.8C497.7 94.3 462.3 92.7 426.8 96.3C391.3 100 355.7 109 320 114.3C284.3 119.7 248.7 121.3 213.2 115C177.7 108.7 142.3 94.3 106.8 90.8C71.3 87.3 35.7 94.7 17.8 98.3L0 102Z" fill="#dff4f8"></path><path d="M0 174L17.8 169.5C35.7 165 71.3 156 106.8 153.3C142.3 150.7 177.7 154.3 213.2 161.5C248.7 168.7 284.3 179.3 320 176.5C355.7 173.7 391.3 157.3 426.8 151C462.3 144.7 497.7 148.3 533.2 154.7C568.7 161 604.3 170 640 167.3C675.7 164.7 711.3 150.3 746.8 147.7C782.3 145 817.7 154 853.2 162.2C888.7 170.3 924.3 177.7 942.2 181.3L960 185L960 172L942.2 165.7C924.3 159.3 888.7 146.7 853.2 134C817.7 121.3 782.3 108.7 746.8 108.7C711.3 108.7 675.7 121.3 640 125.8C604.3 130.3 568.7 126.7 533.2 124.8C497.7 123 462.3 123 426.8 127.5C391.3 132 355.7 141 320 144.7C284.3 148.3 248.7 146.7 213.2 137.7C177.7 128.7 142.3 112.3 106.8 112.3C71.3 112.3 35.7 128.7 17.8 136.8L0 145Z" fill="#d9f2f6"></path><path d="M0 244L17.8 244.8C35.7 245.7 71.3 247.3 106.8 241C142.3 234.7 177.7 220.3 213.2 215.8C248.7 211.3 284.3 216.7 320 214C355.7 211.3 391.3 200.7 426.8 210.7C462.3 220.7 497.7 251.3 533.2 259.5C568.7 267.7 604.3 253.3 640 239.8C675.7 226.3 711.3 213.7 746.8 231.7C782.3 249.7 817.7 298.3 853.2 319C888.7 339.7 924.3 332.3 942.2 328.7L960 325L960 183L942.2 179.3C924.3 175.7 888.7 168.3 853.2 160.2C817.7 152 782.3 143 746.8 145.7C711.3 148.3 675.7 162.7 640 165.3C604.3 168 568.7 159 533.2 152.7C497.7 146.3 462.3 142.7 426.8 149C391.3 155.3 355.7 171.7 320 174.5C284.3 177.3 248.7 166.7 213.2 159.5C177.7 152.3 142.3 148.7 106.8 151.3C71.3 154 35.7 163 17.8 167.5L0 172Z" fill="#d3eff4"></path><path d="M0 271L17.8 268.3C35.7 265.7 71.3 260.3 106.8 254C142.3 247.7 177.7 240.3 213.2 241.2C248.7 242 284.3 251 320 250.2C355.7 249.3 391.3 238.7 426.8 246.8C462.3 255 497.7 282 533.2 289.2C568.7 296.3 604.3 283.7 640 270.2C675.7 256.7 711.3 242.3 746.8 256.7C782.3 271 817.7 314 853.2 332C888.7 350 924.3 343 942.2 339.5L960 336L960 323L942.2 326.7C924.3 330.3 888.7 337.7 853.2 317C817.7 296.3 782.3 247.7 746.8 229.7C711.3 211.7 675.7 224.3 640 237.8C604.3 251.3 568.7 265.7 533.2 257.5C497.7 249.3 462.3 218.7 426.8 208.7C391.3 198.7 355.7 209.3 320 212C284.3 214.7 248.7 209.3 213.2 213.8C177.7 218.3 142.3 232.7 106.8 239C71.3 245.3 35.7 243.7 17.8 242.8L0 242Z" fill="#cdedf2"></path><path d="M0 330L17.8 322C35.7 314 71.3 298 106.8 288.2C142.3 278.3 177.7 274.7 213.2 276.5C248.7 278.3 284.3 285.7 320 286.5C355.7 287.3 391.3 281.7 426.8 292.3C462.3 303 497.7 330 533.2 338.2C568.7 346.3 604.3 335.7 640 316.8C675.7 298 711.3 271 746.8 280C782.3 289 817.7 334 853.2 355.7C888.7 377.3 924.3 375.7 942.2 374.8L960 374L960 334L942.2 337.5C924.3 341 888.7 348 853.2 330C817.7 312 782.3 269 746.8 254.7C711.3 240.3 675.7 254.7 640 268.2C604.3 281.7 568.7 294.3 533.2 287.2C497.7 280 462.3 253 426.8 244.8C391.3 236.7 355.7 247.3 320 248.2C284.3 249 248.7 240 213.2 239.2C177.7 238.3 142.3 245.7 106.8 252C71.3 258.3 35.7 263.7 17.8 266.3L0 269Z" fill="#c7eaf0"></path><path d="M0 422L17.8 425.7C35.7 429.3 71.3 436.7 106.8 436.7C142.3 436.7 177.7 429.3 213.2 423.8C248.7 418.3 284.3 414.7 320 410.2C355.7 405.7 391.3 400.3 426.8 409.3C462.3 418.3 497.7 441.7 533.2 456.2C568.7 470.7 604.3 476.3 640 460.2C675.7 444 711.3 406 746.8 400.5C782.3 395 817.7 422 853.2 432C888.7 442 924.3 435 942.2 431.5L960 428L960 372L942.2 372.8C924.3 373.7 888.7 375.3 853.2 353.7C817.7 332 782.3 287 746.8 278C711.3 269 675.7 296 640 314.8C604.3 333.7 568.7 344.3 533.2 336.2C497.7 328 462.3 301 426.8 290.3C391.3 279.7 355.7 285.3 320 284.5C284.3 283.7 248.7 276.3 213.2 274.5C177.7 272.7 142.3 276.3 106.8 286.2C71.3 296 35.7 312 17.8 320L0 328Z" fill="#c1e8ee"></path><path d="M0 455L17.8 458.5C35.7 462 71.3 469 106.8 464.5C142.3 460 177.7 444 213.2 438.7C248.7 433.3 284.3 438.7 320 437.7C355.7 436.7 391.3 429.3 426.8 437.3C462.3 445.3 497.7 468.7 533.2 484C568.7 499.3 604.3 506.7 640 493.2C675.7 479.7 711.3 445.3 746.8 439C782.3 432.7 817.7 454.3 853.2 460.7C888.7 467 924.3 458 942.2 453.5L960 449L960 426L942.2 429.5C924.3 433 888.7 440 853.2 430C817.7 420 782.3 393 746.8 398.5C711.3 404 675.7 442 640 458.2C604.3 474.3 568.7 468.7 533.2 454.2C497.7 439.7 462.3 416.3 426.8 407.3C391.3 398.3 355.7 403.7 320 408.2C284.3 412.7 248.7 416.3 213.2 421.8C177.7 427.3 142.3 434.7 106.8 434.7C71.3 434.7 35.7 427.3 17.8 423.7L0 420Z" fill="#bbe5ec"></path><path d="M0 519L17.8 517.3C35.7 515.7 71.3 512.3 106.8 511.5C142.3 510.7 177.7 512.3 213.2 514C248.7 515.7 284.3 517.3 320 517.3C355.7 517.3 391.3 515.7 426.8 514C462.3 512.3 497.7 510.7 533.2 514.3C568.7 518 604.3 527 640 529.7C675.7 532.3 711.3 528.7 746.8 525C782.3 521.3 817.7 517.7 853.2 515C888.7 512.3 924.3 510.7 942.2 509.8L960 509L960 447L942.2 451.5C924.3 456 888.7 465 853.2 458.7C817.7 452.3 782.3 430.7 746.8 437C711.3 443.3 675.7 477.7 640 491.2C604.3 504.7 568.7 497.3 533.2 482C497.7 466.7 462.3 443.3 426.8 435.3C391.3 427.3 355.7 434.7 320 435.7C284.3 436.7 248.7 431.3 213.2 436.7C177.7 442 142.3 458 106.8 462.5C71.3 467 35.7 460 17.8 456.5L0 453Z" fill="#b4e3ea"></path><path d="M0 541L17.8 541C35.7 541 71.3 541 106.8 541C142.3 541 177.7 541 213.2 541C248.7 541 284.3 541 320 541C355.7 541 391.3 541 426.8 541C462.3 541 497.7 541 533.2 541C568.7 541 604.3 541 640 541C675.7 541 711.3 541 746.8 541C782.3 541 817.7 541 853.2 541C888.7 541 924.3 541 942.2 541L960 541L960 507L942.2 507.8C924.3 508.7 888.7 510.3 853.2 513C817.7 515.7 782.3 519.3 746.8 523C711.3 526.7 675.7 530.3 640 527.7C604.3 525 568.7 516 533.2 512.3C497.7 508.7 462.3 510.3 426.8 512C391.3 513.7 355.7 515.3 320 515.3C284.3 515.3 248.7 513.7 213.2 512C177.7 510.3 142.3 508.7 106.8 509.5C71.3 510.3 35.7 513.7 17.8 515.3L0 517Z" fill="#aee0e8"></path></svg>