<svg id="visual" viewBox="0 0 1200 600" width="1200" height="600" xmlns="http://www.w3.org/2000/svg" xmlns:xlink="http://www.w3.org/1999/xlink" version="1.1"><path d="M0 55L18.2 57C36.3 59 72.7 63 109 68C145.3 73 181.7 79 218 82C254.3 85 290.7 85 327 81C363.3 77 399.7 69 436 69C472.3 69 508.7 77 545.2 78C581.7 79 618.3 73 654.8 75C691.3 77 727.7 87 764 83C800.3 79 836.7 61 873 61C909.3 61 945.7 79 982 81C1018.3 83 1054.7 69 1091 59C1127.3 49 1163.7 43 1181.8 40L1200 37L1200 0L1181.8 0C1163.7 0 1127.3 0 1091 0C1054.7 0 1018.3 0 982 0C945.7 0 909.3 0 873 0C836.7 0 800.3 0 764 0C727.7 0 691.3 0 654.8 0C618.3 0 581.7 0 545.2 0C508.7 0 472.3 0 436 0C399.7 0 363.3 0 327 0C290.7 0 254.3 0 218 0C181.7 0 145.3 0 109 0C72.7 0 36.3 0 18.2 0L0 0Z" fill="#f6fdfe"></path><path d="M0 169L18.2 180C36.3 191 72.7 213 109 215C145.3 217 181.7 199 218 209C254.3 219 290.7 257 327 256C363.3 255 399.7 215 436 214C472.3 213 508.7 251 545.2 248C581.7 245 618.3 201 654.8 194C691.3 187 727.7 217 764 227C800.3 237 836.7 227 873 214C909.3 201 945.7 185 982 200C1018.3 215 1054.7 261 1091 265C1127.3 269 1163.7 231 1181.8 212L1200 193L1200 35L1181.8 38C1163.7 41 1127.3 47 1091 57C1054.7 67 1018.3 81 982 79C945.7 77 909.3 59 873 59C836.7 59 800.3 77 764 81C727.7 85 691.3 75 654.8 73C618.3 71 581.7 77 545.2 76C508.7 75 472.3 67 436 67C399.7 67 363.3 75 327 79C290.7 83 254.3 83 218 80C181.7 77 145.3 71 109 66C72.7 61 36.3 57 18.2 55L0 53Z" fill="#f3fdfe"></path><path d="M0 283L18.2 295C36.3 307 72.7 331 109 329C145.3 327 181.7 299 218 307C254.3 315 290.7 359 327 361C363.3 363 399.7 323 436 319C472.3 315 508.7 347 545.2 333C581.7 319 618.3 259 654.8 248C691.3 237 727.7 275 764 287C800.3 299 836.7 285 873 275C909.3 265 945.7 259 982 283C1018.3 307 1054.7 361 1091 363C1127.3 365 1163.7 315 1181.8 290L1200 265L1200 191L1181.8 210C1163.7 229 1127.3 267 1091 263C1054.7 259 1018.3 213 982 198C945.7 183 909.3 199 873 212C836.7 225 800.3 235 764 225C727.7 215 691.3 185 654.8 192C618.3 199 581.7 243 545.2 246C508.7 249 472.3 211 436 212C399.7 213 363.3 253 327 254C290.7 255 254.3 217 218 207C181.7 197 145.3 215 109 213C72.7 211 36.3 189 18.2 178L0 167Z" fill="#f1fcfe"></path><path d="M0 463L18.2 472C36.3 481 72.7 499 109 509C145.3 519 181.7 521 218 518C254.3 515 290.7 507 327 496C363.3 485 399.7 471 436 474C472.3 477 508.7 497 545.2 493C581.7 489 618.3 461 654.8 462C691.3 463 727.7 493 764 492C800.3 491 836.7 459 873 453C909.3 447 945.7 467 982 484C1018.3 501 1054.7 515 1091 516C1127.3 517 1163.7 505 1181.8 499L1200 493L1200 263L1181.8 288C1163.7 313 1127.3 363 1091 361C1054.7 359 1018.3 305 982 281C945.7 257 909.3 263 873 273C836.7 283 800.3 297 764 285C727.7 273 691.3 235 654.8 246C618.3 257 581.7 317 545.2 331C508.7 345 472.3 313 436 317C399.7 321 363.3 361 327 359C290.7 357 254.3 313 218 305C181.7 297 145.3 325 109 327C72.7 329 36.3 305 18.2 293L0 281Z" fill="#e3f9fd"></path><path d="M0 601L18.2 601C36.3 601 72.7 601 109 601C145.3 601 181.7 601 218 601C254.3 601 290.7 601 327 601C363.3 601 399.7 601 436 601C472.3 601 508.7 601 545.2 601C581.7 601 618.3 601 654.8 601C691.3 601 727.7 601 764 601C800.3 601 836.7 601 873 601C909.3 601 945.7 601 982 601C1018.3 601 1054.7 601 1091 601C1127.3 601 1163.7 601 1181.8 601L1200 601L1200 491L1181.8 497C1163.7 503 1127.3 515 1091 514C1054.7 513 1018.3 499 982 482C945.7 465 909.3 445 873 451C836.7 457 800.3 489 764 490C727.7 491 691.3 461 654.8 460C618.3 459 581.7 487 545.2 491C508.7 495 472.3 475 436 472C399.7 469 363.3 483 327 494C290.7 505 254.3 513 218 516C181.7 519 145.3 517 109 507C72.7 497 36.3 479 18.2 470L0 461Z" fill="#d5f6fc"></path></svg>