<svg id="visual" viewBox="0 0 1200 600" width="1200" height="600" xmlns="http://www.w3.org/2000/svg" xmlns:xlink="http://www.w3.org/1999/xlink" version="1.1"><path d="M0 25L18.2 27C36.3 29 72.7 33 109 39C145.3 45 181.7 53 218 52C254.3 51 290.7 41 327 38C363.3 35 399.7 39 436 39C472.3 39 508.7 35 545.2 37C581.7 39 618.3 47 654.8 51C691.3 55 727.7 55 764 56C800.3 57 836.7 59 873 60C909.3 61 945.7 61 982 60C1018.3 59 1054.7 57 1091 53C1127.3 49 1163.7 43 1181.8 40L1200 37L1200 0L1181.8 0C1163.7 0 1127.3 0 1091 0C1054.7 0 1018.3 0 982 0C945.7 0 909.3 0 873 0C836.7 0 800.3 0 764 0C727.7 0 691.3 0 654.8 0C618.3 0 581.7 0 545.2 0C508.7 0 472.3 0 436 0C399.7 0 363.3 0 327 0C290.7 0 254.3 0 218 0C181.7 0 145.3 0 109 0C72.7 0 36.3 0 18.2 0L0 0Z" fill="#d5f6fc"></path><path d="M0 121L18.2 116C36.3 111 72.7 101 109 108C145.3 115 181.7 139 218 138C254.3 137 290.7 111 327 103C363.3 95 399.7 105 436 110C472.3 115 508.7 115 545.2 114C581.7 113 618.3 111 654.8 117C691.3 123 727.7 137 764 139C800.3 141 836.7 131 873 129C909.3 127 945.7 133 982 132C1018.3 131 1054.7 123 1091 114C1127.3 105 1163.7 95 1181.8 90L1200 85L1200 35L1181.8 38C1163.7 41 1127.3 47 1091 51C1054.7 55 1018.3 57 982 58C945.7 59 909.3 59 873 58C836.7 57 800.3 55 764 54C727.7 53 691.3 53 654.8 49C618.3 45 581.7 37 545.2 35C508.7 33 472.3 37 436 37C399.7 37 363.3 33 327 36C290.7 39 254.3 49 218 50C181.7 51 145.3 43 109 37C72.7 31 36.3 27 18.2 25L0 23Z" fill="#dcf8fc"></path><path d="M0 187L18.2 181C36.3 175 72.7 163 109 164C145.3 165 181.7 179 218 173C254.3 167 290.7 141 327 133C363.3 125 399.7 135 436 142C472.3 149 508.7 153 545.2 157C581.7 161 618.3 165 654.8 176C691.3 187 727.7 205 764 207C800.3 209 836.7 195 873 188C909.3 181 945.7 181 982 176C1018.3 171 1054.7 161 1091 154C1127.3 147 1163.7 143 1181.8 141L1200 139L1200 83L1181.8 88C1163.7 93 1127.3 103 1091 112C1054.7 121 1018.3 129 982 130C945.7 131 909.3 125 873 127C836.7 129 800.3 139 764 137C727.7 135 691.3 121 654.8 115C618.3 109 581.7 111 545.2 112C508.7 113 472.3 113 436 108C399.7 103 363.3 93 327 101C290.7 109 254.3 135 218 136C181.7 137 145.3 113 109 106C72.7 99 36.3 109 18.2 114L0 119Z" fill="#e3f9fd"></path><path d="M0 223L18.2 216C36.3 209 72.7 195 109 194C145.3 193 181.7 205 218 199C254.3 193 290.7 169 327 163C363.3 157 399.7 169 436 178C472.3 187 508.7 193 545.2 199C581.7 205 618.3 211 654.8 219C691.3 227 727.7 237 764 238C800.3 239 836.7 231 873 226C909.3 221 945.7 219 982 214C1018.3 209 1054.7 201 1091 192C1127.3 183 1163.7 173 1181.8 168L1200 163L1200 137L1181.8 139C1163.7 141 1127.3 145 1091 152C1054.7 159 1018.3 169 982 174C945.7 179 909.3 179 873 186C836.7 193 800.3 207 764 205C727.7 203 691.3 185 654.8 174C618.3 163 581.7 159 545.2 155C508.7 151 472.3 147 436 140C399.7 133 363.3 123 327 131C290.7 139 254.3 165 218 171C181.7 177 145.3 163 109 162C72.7 161 36.3 173 18.2 179L0 185Z" fill="#eafbfd"></path><path d="M0 265L18.2 258C36.3 251 72.7 237 109 240C145.3 243 181.7 263 218 261C254.3 259 290.7 235 327 229C363.3 223 399.7 235 436 244C472.3 253 508.7 259 545.2 265C581.7 271 618.3 277 654.8 281C691.3 285 727.7 287 764 284C800.3 281 836.7 273 873 268C909.3 263 945.7 261 982 264C1018.3 267 1054.7 275 1091 265C1127.3 255 1163.7 227 1181.8 213L1200 199L1200 161L1181.8 166C1163.7 171 1127.3 181 1091 190C1054.7 199 1018.3 207 982 212C945.7 217 909.3 219 873 224C836.7 229 800.3 237 764 236C727.7 235 691.3 225 654.8 217C618.3 209 581.7 203 545.2 197C508.7 191 472.3 185 436 176C399.7 167 363.3 155 327 161C290.7 167 254.3 191 218 197C181.7 203 145.3 191 109 192C72.7 193 36.3 207 18.2 214L0 221Z" fill="#f1fcfe"></path><path d="M0 355L18.2 359C36.3 363 72.7 371 109 373C145.3 375 181.7 371 218 373C254.3 375 290.7 383 327 380C363.3 377 399.7 363 436 357C472.3 351 508.7 353 545.2 367C581.7 381 618.3 407 654.8 414C691.3 421 727.7 409 764 404C800.3 399 836.7 401 873 407C909.3 413 945.7 423 982 422C1018.3 421 1054.7 409 1091 390C1127.3 371 1163.7 345 1181.8 332L1200 319L1200 197L1181.8 211C1163.7 225 1127.3 253 1091 263C1054.7 273 1018.3 265 982 262C945.7 259 909.3 261 873 266C836.7 271 800.3 279 764 282C727.7 285 691.3 283 654.8 279C618.3 275 581.7 269 545.2 263C508.7 257 472.3 251 436 242C399.7 233 363.3 221 327 227C290.7 233 254.3 257 218 259C181.7 261 145.3 241 109 238C72.7 235 36.3 249 18.2 256L0 263Z" fill="#f2fcfe"></path><path d="M0 523L18.2 523C36.3 523 72.7 523 109 521C145.3 519 181.7 515 218 515C254.3 515 290.7 519 327 522C363.3 525 399.7 527 436 528C472.3 529 508.7 529 545.2 528C581.7 527 618.3 525 654.8 525C691.3 525 727.7 527 764 528C800.3 529 836.7 529 873 531C909.3 533 945.7 537 982 541C1018.3 545 1054.7 549 1091 543C1127.3 537 1163.7 521 1181.8 513L1200 505L1200 317L1181.8 330C1163.7 343 1127.3 369 1091 388C1054.7 407 1018.3 419 982 420C945.7 421 909.3 411 873 405C836.7 399 800.3 397 764 402C727.7 407 691.3 419 654.8 412C618.3 405 581.7 379 545.2 365C508.7 351 472.3 349 436 355C399.7 361 363.3 375 327 378C290.7 381 254.3 373 218 371C181.7 369 145.3 373 109 371C72.7 369 36.3 361 18.2 357L0 353Z" fill="#f3fdfe"></path><path d="M0 565L18.2 563C36.3 561 72.7 557 109 554C145.3 551 181.7 549 218 550C254.3 551 290.7 555 327 558C363.3 561 399.7 563 436 562C472.3 561 508.7 557 545.2 554C581.7 551 618.3 549 654.8 548C691.3 547 727.7 547 764 547C800.3 547 836.7 547 873 552C909.3 557 945.7 567 982 571C1018.3 575 1054.7 573 1091 568C1127.3 563 1163.7 555 1181.8 551L1200 547L1200 503L1181.8 511C1163.7 519 1127.3 535 1091 541C1054.7 547 1018.3 543 982 539C945.7 535 909.3 531 873 529C836.7 527 800.3 527 764 526C727.7 525 691.3 523 654.8 523C618.3 523 581.7 525 545.2 526C508.7 527 472.3 527 436 526C399.7 525 363.3 523 327 520C290.7 517 254.3 513 218 513C181.7 513 145.3 517 109 519C72.7 521 36.3 521 18.2 521L0 521Z" fill="#f5fdfe"></path><path d="M0 601L18.2 601C36.3 601 72.7 601 109 601C145.3 601 181.7 601 218 601C254.3 601 290.7 601 327 601C363.3 601 399.7 601 436 601C472.3 601 508.7 601 545.2 601C581.7 601 618.3 601 654.8 601C691.3 601 727.7 601 764 601C800.3 601 836.7 601 873 601C909.3 601 945.7 601 982 601C1018.3 601 1054.7 601 1091 601C1127.3 601 1163.7 601 1181.8 601L1200 601L1200 545L1181.8 549C1163.7 553 1127.3 561 1091 566C1054.7 571 1018.3 573 982 569C945.7 565 909.3 555 873 550C836.7 545 800.3 545 764 545C727.7 545 691.3 545 654.8 546C618.3 547 581.7 549 545.2 552C508.7 555 472.3 559 436 560C399.7 561 363.3 559 327 556C290.7 553 254.3 549 218 548C181.7 547 145.3 549 109 552C72.7 555 36.3 559 18.2 561L0 563Z" fill="#f6fdfe"></path></svg>