<svg id="visual" viewBox="0 0 1200 600" width="1200" height="600" xmlns="http://www.w3.org/2000/svg" xmlns:xlink="http://www.w3.org/1999/xlink" version="1.1"><path d="M0 31L18.2 31C36.3 31 72.7 31 109 36C145.3 41 181.7 51 218 56C254.3 61 290.7 61 327 60C363.3 59 399.7 57 436 58C472.3 59 508.7 63 545.2 60C581.7 57 618.3 47 654.8 43C691.3 39 727.7 41 764 43C800.3 45 836.7 47 873 47C909.3 47 945.7 45 982 46C1018.3 47 1054.7 51 1091 52C1127.3 53 1163.7 51 1181.8 50L1200 49L1200 0L1181.8 0C1163.7 0 1127.3 0 1091 0C1054.7 0 1018.3 0 982 0C945.7 0 909.3 0 873 0C836.7 0 800.3 0 764 0C727.7 0 691.3 0 654.8 0C618.3 0 581.7 0 545.2 0C508.7 0 472.3 0 436 0C399.7 0 363.3 0 327 0C290.7 0 254.3 0 218 0C181.7 0 145.3 0 109 0C72.7 0 36.3 0 18.2 0L0 0Z" fill="#f6fdfe"></path><path d="M0 109L18.2 116C36.3 123 72.7 137 109 143C145.3 149 181.7 147 218 143C254.3 139 290.7 133 327 128C363.3 123 399.7 119 436 123C472.3 127 508.7 139 545.2 135C581.7 131 618.3 111 654.8 103C691.3 95 727.7 99 764 105C800.3 111 836.7 119 873 124C909.3 129 945.7 131 982 134C1018.3 137 1054.7 141 1091 142C1127.3 143 1163.7 141 1181.8 140L1200 139L1200 47L1181.8 48C1163.7 49 1127.3 51 1091 50C1054.7 49 1018.3 45 982 44C945.7 43 909.3 45 873 45C836.7 45 800.3 43 764 41C727.7 39 691.3 37 654.8 41C618.3 45 581.7 55 545.2 58C508.7 61 472.3 57 436 56C399.7 55 363.3 57 327 58C290.7 59 254.3 59 218 54C181.7 49 145.3 39 109 34C72.7 29 36.3 29 18.2 29L0 29Z" fill="#f5fdfe"></path><path d="M0 169L18.2 173C36.3 177 72.7 185 109 188C145.3 191 181.7 189 218 183C254.3 177 290.7 167 327 164C363.3 161 399.7 165 436 174C472.3 183 508.7 197 545.2 188C581.7 179 618.3 147 654.8 134C691.3 121 727.7 127 764 134C800.3 141 836.7 149 873 156C909.3 163 945.7 169 982 173C1018.3 177 1054.7 179 1091 181C1127.3 183 1163.7 185 1181.8 186L1200 187L1200 137L1181.8 138C1163.7 139 1127.3 141 1091 140C1054.7 139 1018.3 135 982 132C945.7 129 909.3 127 873 122C836.7 117 800.3 109 764 103C727.7 97 691.3 93 654.8 101C618.3 109 581.7 129 545.2 133C508.7 137 472.3 125 436 121C399.7 117 363.3 121 327 126C290.7 131 254.3 137 218 141C181.7 145 145.3 147 109 141C72.7 135 36.3 121 18.2 114L0 107Z" fill="#f3fdfe"></path><path d="M0 253L18.2 268C36.3 283 72.7 313 109 317C145.3 321 181.7 299 218 284C254.3 269 290.7 261 327 275C363.3 289 399.7 325 436 339C472.3 353 508.7 345 545.2 330C581.7 315 618.3 293 654.8 275C691.3 257 727.7 243 764 249C800.3 255 836.7 281 873 290C909.3 299 945.7 291 982 292C1018.3 293 1054.7 303 1091 308C1127.3 313 1163.7 313 1181.8 313L1200 313L1200 185L1181.8 184C1163.7 183 1127.3 181 1091 179C1054.7 177 1018.3 175 982 171C945.7 167 909.3 161 873 154C836.7 147 800.3 139 764 132C727.7 125 691.3 119 654.8 132C618.3 145 581.7 177 545.2 186C508.7 195 472.3 181 436 172C399.7 163 363.3 159 327 162C290.7 165 254.3 175 218 181C181.7 187 145.3 189 109 186C72.7 183 36.3 175 18.2 171L0 167Z" fill="#f2fcfe"></path><path d="M0 319L18.2 334C36.3 349 72.7 379 109 385C145.3 391 181.7 373 218 361C254.3 349 290.7 343 327 352C363.3 361 399.7 385 436 392C472.3 399 508.7 389 545.2 373C581.7 357 618.3 335 654.8 318C691.3 301 727.7 289 764 300C800.3 311 836.7 345 873 359C909.3 373 945.7 367 982 362C1018.3 357 1054.7 353 1091 352C1127.3 351 1163.7 353 1181.8 354L1200 355L1200 311L1181.8 311C1163.7 311 1127.3 311 1091 306C1054.7 301 1018.3 291 982 290C945.7 289 909.3 297 873 288C836.7 279 800.3 253 764 247C727.7 241 691.3 255 654.8 273C618.3 291 581.7 313 545.2 328C508.7 343 472.3 351 436 337C399.7 323 363.3 287 327 273C290.7 259 254.3 267 218 282C181.7 297 145.3 319 109 315C72.7 311 36.3 281 18.2 266L0 251Z" fill="#f1fcfe"></path><path d="M0 475L18.2 481C36.3 487 72.7 499 109 502C145.3 505 181.7 499 218 494C254.3 489 290.7 485 327 489C363.3 493 399.7 505 436 510C472.3 515 508.7 513 545.2 509C581.7 505 618.3 499 654.8 496C691.3 493 727.7 493 764 493C800.3 493 836.7 493 873 494C909.3 495 945.7 497 982 497C1018.3 497 1054.7 495 1091 500C1127.3 505 1163.7 517 1181.8 523L1200 529L1200 353L1181.8 352C1163.7 351 1127.3 349 1091 350C1054.7 351 1018.3 355 982 360C945.7 365 909.3 371 873 357C836.7 343 800.3 309 764 298C727.7 287 691.3 299 654.8 316C618.3 333 581.7 355 545.2 371C508.7 387 472.3 397 436 390C399.7 383 363.3 359 327 350C290.7 341 254.3 347 218 359C181.7 371 145.3 389 109 383C72.7 377 36.3 347 18.2 332L0 317Z" fill="#eafbfd"></path><path d="M0 505L18.2 509C36.3 513 72.7 521 109 525C145.3 529 181.7 529 218 527C254.3 525 290.7 521 327 522C363.3 523 399.7 529 436 532C472.3 535 508.7 535 545.2 535C581.7 535 618.3 535 654.8 531C691.3 527 727.7 519 764 519C800.3 519 836.7 527 873 528C909.3 529 945.7 523 982 521C1018.3 519 1054.7 521 1091 527C1127.3 533 1163.7 543 1181.8 548L1200 553L1200 527L1181.8 521C1163.7 515 1127.3 503 1091 498C1054.7 493 1018.3 495 982 495C945.7 495 909.3 493 873 492C836.7 491 800.3 491 764 491C727.7 491 691.3 491 654.8 494C618.3 497 581.7 503 545.2 507C508.7 511 472.3 513 436 508C399.7 503 363.3 491 327 487C290.7 483 254.3 487 218 492C181.7 497 145.3 503 109 500C72.7 497 36.3 485 18.2 479L0 473Z" fill="#e3f9fd"></path><path d="M0 559L18.2 561C36.3 563 72.7 567 109 570C145.3 573 181.7 575 218 574C254.3 573 290.7 569 327 568C363.3 567 399.7 569 436 569C472.3 569 508.7 567 545.2 569C581.7 571 618.3 577 654.8 577C691.3 577 727.7 571 764 567C800.3 563 836.7 561 873 561C909.3 561 945.7 563 982 565C1018.3 567 1054.7 569 1091 571C1127.3 573 1163.7 575 1181.8 576L1200 577L1200 551L1181.8 546C1163.7 541 1127.3 531 1091 525C1054.7 519 1018.3 517 982 519C945.7 521 909.3 527 873 526C836.7 525 800.3 517 764 517C727.7 517 691.3 525 654.8 529C618.3 533 581.7 533 545.2 533C508.7 533 472.3 533 436 530C399.7 527 363.3 521 327 520C290.7 519 254.3 523 218 525C181.7 527 145.3 527 109 523C72.7 519 36.3 511 18.2 507L0 503Z" fill="#dcf8fc"></path><path d="M0 601L18.2 601C36.3 601 72.7 601 109 601C145.3 601 181.7 601 218 601C254.3 601 290.7 601 327 601C363.3 601 399.7 601 436 601C472.3 601 508.7 601 545.2 601C581.7 601 618.3 601 654.8 601C691.3 601 727.7 601 764 601C800.3 601 836.7 601 873 601C909.3 601 945.7 601 982 601C1018.3 601 1054.7 601 1091 601C1127.3 601 1163.7 601 1181.8 601L1200 601L1200 575L1181.8 574C1163.7 573 1127.3 571 1091 569C1054.7 567 1018.3 565 982 563C945.7 561 909.3 559 873 559C836.7 559 800.3 561 764 565C727.7 569 691.3 575 654.8 575C618.3 575 581.7 569 545.2 567C508.7 565 472.3 567 436 567C399.7 567 363.3 565 327 566C290.7 567 254.3 571 218 572C181.7 573 145.3 571 109 568C72.7 565 36.3 561 18.2 559L0 557Z" fill="#d5f6fc"></path></svg>