<svg id="visual" viewBox="0 0 1200 600" width="1200" height="600" xmlns="http://www.w3.org/2000/svg" xmlns:xlink="http://www.w3.org/1999/xlink" version="1.1"><path d="M0 43L18.2 43C36.3 43 72.7 43 109 43C145.3 43 181.7 43 218 43C254.3 43 290.7 43 327 41C363.3 39 399.7 35 436 35C472.3 35 508.7 39 545.2 41C581.7 43 618.3 43 654.8 41C691.3 39 727.7 35 764 34C800.3 33 836.7 35 873 37C909.3 39 945.7 41 982 41C1018.3 41 1054.7 39 1091 38C1127.3 37 1163.7 37 1181.8 37L1200 37L1200 0L1181.8 0C1163.7 0 1127.3 0 1091 0C1054.7 0 1018.3 0 982 0C945.7 0 909.3 0 873 0C836.7 0 800.3 0 764 0C727.7 0 691.3 0 654.8 0C618.3 0 581.7 0 545.2 0C508.7 0 472.3 0 436 0C399.7 0 363.3 0 327 0C290.7 0 254.3 0 218 0C181.7 0 145.3 0 109 0C72.7 0 36.3 0 18.2 0L0 0Z" fill="#f6fdfe"></path><path d="M0 169L18.2 170C36.3 171 72.7 173 109 169C145.3 165 181.7 155 218 161C254.3 167 290.7 189 327 191C363.3 193 399.7 175 436 167C472.3 159 508.7 161 545.2 157C581.7 153 618.3 143 654.8 143C691.3 143 727.7 153 764 160C800.3 167 836.7 171 873 169C909.3 167 945.7 159 982 155C1018.3 151 1054.7 151 1091 157C1127.3 163 1163.7 175 1181.8 181L1200 187L1200 35L1181.8 35C1163.7 35 1127.3 35 1091 36C1054.7 37 1018.3 39 982 39C945.7 39 909.3 37 873 35C836.7 33 800.3 31 764 32C727.7 33 691.3 37 654.8 39C618.3 41 581.7 41 545.2 39C508.7 37 472.3 33 436 33C399.7 33 363.3 37 327 39C290.7 41 254.3 41 218 41C181.7 41 145.3 41 109 41C72.7 41 36.3 41 18.2 41L0 41Z" fill="#f5fdfe"></path><path d="M0 319L18.2 320C36.3 321 72.7 323 109 318C145.3 313 181.7 301 218 297C254.3 293 290.7 297 327 294C363.3 291 399.7 281 436 283C472.3 285 508.7 299 545.2 302C581.7 305 618.3 297 654.8 297C691.3 297 727.7 305 764 304C800.3 303 836.7 293 873 288C909.3 283 945.7 283 982 285C1018.3 287 1054.7 291 1091 298C1127.3 305 1163.7 315 1181.8 320L1200 325L1200 185L1181.8 179C1163.7 173 1127.3 161 1091 155C1054.7 149 1018.3 149 982 153C945.7 157 909.3 165 873 167C836.7 169 800.3 165 764 158C727.7 151 691.3 141 654.8 141C618.3 141 581.7 151 545.2 155C508.7 159 472.3 157 436 165C399.7 173 363.3 191 327 189C290.7 187 254.3 165 218 159C181.7 153 145.3 163 109 167C72.7 171 36.3 169 18.2 168L0 167Z" fill="#f3fdfe"></path><path d="M0 361L18.2 360C36.3 359 72.7 357 109 349C145.3 341 181.7 327 218 323C254.3 319 290.7 325 327 325C363.3 325 399.7 319 436 320C472.3 321 508.7 329 545.2 333C581.7 337 618.3 337 654.8 341C691.3 345 727.7 353 764 353C800.3 353 836.7 345 873 337C909.3 329 945.7 321 982 320C1018.3 319 1054.7 325 1091 331C1127.3 337 1163.7 343 1181.8 346L1200 349L1200 323L1181.8 318C1163.7 313 1127.3 303 1091 296C1054.7 289 1018.3 285 982 283C945.7 281 909.3 281 873 286C836.7 291 800.3 301 764 302C727.7 303 691.3 295 654.8 295C618.3 295 581.7 303 545.2 300C508.7 297 472.3 283 436 281C399.7 279 363.3 289 327 292C290.7 295 254.3 291 218 295C181.7 299 145.3 311 109 316C72.7 321 36.3 319 18.2 318L0 317Z" fill="#f2fcfe"></path><path d="M0 445L18.2 444C36.3 443 72.7 441 109 435C145.3 429 181.7 419 218 417C254.3 415 290.7 421 327 419C363.3 417 399.7 407 436 407C472.3 407 508.7 417 545.2 426C581.7 435 618.3 443 654.8 442C691.3 441 727.7 431 764 419C800.3 407 836.7 393 873 389C909.3 385 945.7 391 982 395C1018.3 399 1054.7 401 1091 405C1127.3 409 1163.7 415 1181.8 418L1200 421L1200 347L1181.8 344C1163.7 341 1127.3 335 1091 329C1054.7 323 1018.3 317 982 318C945.7 319 909.3 327 873 335C836.7 343 800.3 351 764 351C727.7 351 691.3 343 654.8 339C618.3 335 581.7 335 545.2 331C508.7 327 472.3 319 436 318C399.7 317 363.3 323 327 323C290.7 323 254.3 317 218 321C181.7 325 145.3 339 109 347C72.7 355 36.3 357 18.2 358L0 359Z" fill="#f1fcfe"></path><path d="M0 481L18.2 480C36.3 479 72.7 477 109 472C145.3 467 181.7 459 218 456C254.3 453 290.7 455 327 452C363.3 449 399.7 441 436 444C472.3 447 508.7 461 545.2 469C581.7 477 618.3 479 654.8 475C691.3 471 727.7 461 764 453C800.3 445 836.7 439 873 439C909.3 439 945.7 445 982 450C1018.3 455 1054.7 459 1091 460C1127.3 461 1163.7 459 1181.8 458L1200 457L1200 419L1181.8 416C1163.7 413 1127.3 407 1091 403C1054.7 399 1018.3 397 982 393C945.7 389 909.3 383 873 387C836.7 391 800.3 405 764 417C727.7 429 691.3 439 654.8 440C618.3 441 581.7 433 545.2 424C508.7 415 472.3 405 436 405C399.7 405 363.3 415 327 417C290.7 419 254.3 413 218 415C181.7 417 145.3 427 109 433C72.7 439 36.3 441 18.2 442L0 443Z" fill="#eafbfd"></path><path d="M0 523L18.2 519C36.3 515 72.7 507 109 500C145.3 493 181.7 487 218 484C254.3 481 290.7 481 327 480C363.3 479 399.7 477 436 479C472.3 481 508.7 487 545.2 491C581.7 495 618.3 497 654.8 494C691.3 491 727.7 483 764 480C800.3 477 836.7 479 873 482C909.3 485 945.7 489 982 491C1018.3 493 1054.7 493 1091 494C1127.3 495 1163.7 497 1181.8 498L1200 499L1200 455L1181.8 456C1163.7 457 1127.3 459 1091 458C1054.7 457 1018.3 453 982 448C945.7 443 909.3 437 873 437C836.7 437 800.3 443 764 451C727.7 459 691.3 469 654.8 473C618.3 477 581.7 475 545.2 467C508.7 459 472.3 445 436 442C399.7 439 363.3 447 327 450C290.7 453 254.3 451 218 454C181.7 457 145.3 465 109 470C72.7 475 36.3 477 18.2 478L0 479Z" fill="#e3f9fd"></path><path d="M0 559L18.2 555C36.3 551 72.7 543 109 538C145.3 533 181.7 531 218 532C254.3 533 290.7 537 327 542C363.3 547 399.7 553 436 556C472.3 559 508.7 559 545.2 557C581.7 555 618.3 551 654.8 546C691.3 541 727.7 535 764 537C800.3 539 836.7 549 873 550C909.3 551 945.7 543 982 542C1018.3 541 1054.7 547 1091 553C1127.3 559 1163.7 565 1181.8 568L1200 571L1200 497L1181.8 496C1163.7 495 1127.3 493 1091 492C1054.7 491 1018.3 491 982 489C945.7 487 909.3 483 873 480C836.7 477 800.3 475 764 478C727.7 481 691.3 489 654.8 492C618.3 495 581.7 493 545.2 489C508.7 485 472.3 479 436 477C399.7 475 363.3 477 327 478C290.7 479 254.3 479 218 482C181.7 485 145.3 491 109 498C72.7 505 36.3 513 18.2 517L0 521Z" fill="#dcf8fc"></path><path d="M0 601L18.2 601C36.3 601 72.7 601 109 601C145.3 601 181.7 601 218 601C254.3 601 290.7 601 327 601C363.3 601 399.7 601 436 601C472.3 601 508.7 601 545.2 601C581.7 601 618.3 601 654.8 601C691.3 601 727.7 601 764 601C800.3 601 836.7 601 873 601C909.3 601 945.7 601 982 601C1018.3 601 1054.7 601 1091 601C1127.3 601 1163.7 601 1181.8 601L1200 601L1200 569L1181.8 566C1163.7 563 1127.3 557 1091 551C1054.7 545 1018.3 539 982 540C945.7 541 909.3 549 873 548C836.7 547 800.3 537 764 535C727.7 533 691.3 539 654.8 544C618.3 549 581.7 553 545.2 555C508.7 557 472.3 557 436 554C399.7 551 363.3 545 327 540C290.7 535 254.3 531 218 530C181.7 529 145.3 531 109 536C72.7 541 36.3 549 18.2 553L0 557Z" fill="#d5f6fc"></path></svg>