<svg id="visual" viewBox="0 0 1200 600" width="1200" height="600" xmlns="http://www.w3.org/2000/svg" xmlns:xlink="http://www.w3.org/1999/xlink" version="1.1"><path d="M0 49L18.2 46C36.3 43 72.7 37 109 38C145.3 39 181.7 47 218 47C254.3 47 290.7 39 327 38C363.3 37 399.7 43 436 48C472.3 53 508.7 57 545.2 54C581.7 51 618.3 41 654.8 38C691.3 35 727.7 39 764 44C800.3 49 836.7 55 873 56C909.3 57 945.7 53 982 51C1018.3 49 1054.7 49 1091 47C1127.3 45 1163.7 41 1181.8 39L1200 37L1200 0L1181.8 0C1163.7 0 1127.3 0 1091 0C1054.7 0 1018.3 0 982 0C945.7 0 909.3 0 873 0C836.7 0 800.3 0 764 0C727.7 0 691.3 0 654.8 0C618.3 0 581.7 0 545.2 0C508.7 0 472.3 0 436 0C399.7 0 363.3 0 327 0C290.7 0 254.3 0 218 0C181.7 0 145.3 0 109 0C72.7 0 36.3 0 18.2 0L0 0Z" fill="#d5f6fc"></path><path d="M0 145L18.2 144C36.3 143 72.7 141 109 153C145.3 165 181.7 191 218 200C254.3 209 290.7 201 327 187C363.3 173 399.7 153 436 149C472.3 145 508.7 157 545.2 155C581.7 153 618.3 137 654.8 142C691.3 147 727.7 173 764 180C800.3 187 836.7 175 873 179C909.3 183 945.7 203 982 213C1018.3 223 1054.7 223 1091 206C1127.3 189 1163.7 155 1181.8 138L1200 121L1200 35L1181.8 37C1163.7 39 1127.3 43 1091 45C1054.7 47 1018.3 47 982 49C945.7 51 909.3 55 873 54C836.7 53 800.3 47 764 42C727.7 37 691.3 33 654.8 36C618.3 39 581.7 49 545.2 52C508.7 55 472.3 51 436 46C399.7 41 363.3 35 327 36C290.7 37 254.3 45 218 45C181.7 45 145.3 37 109 36C72.7 35 36.3 41 18.2 44L0 47Z" fill="#dcf8fc"></path><path d="M0 175L18.2 175C36.3 175 72.7 175 109 187C145.3 199 181.7 223 218 235C254.3 247 290.7 247 327 236C363.3 225 399.7 203 436 196C472.3 189 508.7 197 545.2 191C581.7 185 618.3 165 654.8 173C691.3 181 727.7 217 764 224C800.3 231 836.7 209 873 208C909.3 207 945.7 227 982 237C1018.3 247 1054.7 247 1091 234C1127.3 221 1163.7 195 1181.8 182L1200 169L1200 119L1181.8 136C1163.7 153 1127.3 187 1091 204C1054.7 221 1018.3 221 982 211C945.7 201 909.3 181 873 177C836.7 173 800.3 185 764 178C727.7 171 691.3 145 654.8 140C618.3 135 581.7 151 545.2 153C508.7 155 472.3 143 436 147C399.7 151 363.3 171 327 185C290.7 199 254.3 207 218 198C181.7 189 145.3 163 109 151C72.7 139 36.3 141 18.2 142L0 143Z" fill="#e3f9fd"></path><path d="M0 253L18.2 253C36.3 253 72.7 253 109 263C145.3 273 181.7 293 218 301C254.3 309 290.7 305 327 298C363.3 291 399.7 281 436 272C472.3 263 508.7 255 545.2 250C581.7 245 618.3 243 654.8 255C691.3 267 727.7 293 764 295C800.3 297 836.7 275 873 270C909.3 265 945.7 277 982 289C1018.3 301 1054.7 313 1091 304C1127.3 295 1163.7 265 1181.8 250L1200 235L1200 167L1181.8 180C1163.7 193 1127.3 219 1091 232C1054.7 245 1018.3 245 982 235C945.7 225 909.3 205 873 206C836.7 207 800.3 229 764 222C727.7 215 691.3 179 654.8 171C618.3 163 581.7 183 545.2 189C508.7 195 472.3 187 436 194C399.7 201 363.3 223 327 234C290.7 245 254.3 245 218 233C181.7 221 145.3 197 109 185C72.7 173 36.3 173 18.2 173L0 173Z" fill="#eafbfd"></path><path d="M0 283L18.2 285C36.3 287 72.7 291 109 299C145.3 307 181.7 319 218 323C254.3 327 290.7 323 327 316C363.3 309 399.7 299 436 291C472.3 283 508.7 277 545.2 276C581.7 275 618.3 279 654.8 294C691.3 309 727.7 335 764 335C800.3 335 836.7 309 873 303C909.3 297 945.7 311 982 324C1018.3 337 1054.7 349 1091 341C1127.3 333 1163.7 305 1181.8 291L1200 277L1200 233L1181.8 248C1163.7 263 1127.3 293 1091 302C1054.7 311 1018.3 299 982 287C945.7 275 909.3 263 873 268C836.7 273 800.3 295 764 293C727.7 291 691.3 265 654.8 253C618.3 241 581.7 243 545.2 248C508.7 253 472.3 261 436 270C399.7 279 363.3 289 327 296C290.7 303 254.3 307 218 299C181.7 291 145.3 271 109 261C72.7 251 36.3 251 18.2 251L0 251Z" fill="#f1fcfe"></path><path d="M0 313L18.2 317C36.3 321 72.7 329 109 340C145.3 351 181.7 365 218 367C254.3 369 290.7 359 327 349C363.3 339 399.7 329 436 323C472.3 317 508.7 315 545.2 312C581.7 309 618.3 305 654.8 317C691.3 329 727.7 357 764 360C800.3 363 836.7 341 873 339C909.3 337 945.7 355 982 366C1018.3 377 1054.7 381 1091 372C1127.3 363 1163.7 341 1181.8 330L1200 319L1200 275L1181.8 289C1163.7 303 1127.3 331 1091 339C1054.7 347 1018.3 335 982 322C945.7 309 909.3 295 873 301C836.7 307 800.3 333 764 333C727.7 333 691.3 307 654.8 292C618.3 277 581.7 273 545.2 274C508.7 275 472.3 281 436 289C399.7 297 363.3 307 327 314C290.7 321 254.3 325 218 321C181.7 317 145.3 305 109 297C72.7 289 36.3 285 18.2 283L0 281Z" fill="#f2fcfe"></path><path d="M0 481L18.2 479C36.3 477 72.7 473 109 476C145.3 479 181.7 489 218 490C254.3 491 290.7 483 327 487C363.3 491 399.7 507 436 506C472.3 505 508.7 487 545.2 476C581.7 465 618.3 461 654.8 463C691.3 465 727.7 473 764 474C800.3 475 836.7 469 873 472C909.3 475 945.7 487 982 490C1018.3 493 1054.7 487 1091 483C1127.3 479 1163.7 477 1181.8 476L1200 475L1200 317L1181.8 328C1163.7 339 1127.3 361 1091 370C1054.7 379 1018.3 375 982 364C945.7 353 909.3 335 873 337C836.7 339 800.3 361 764 358C727.7 355 691.3 327 654.8 315C618.3 303 581.7 307 545.2 310C508.7 313 472.3 315 436 321C399.7 327 363.3 337 327 347C290.7 357 254.3 367 218 365C181.7 363 145.3 349 109 338C72.7 327 36.3 319 18.2 315L0 311Z" fill="#f3fdfe"></path><path d="M0 529L18.2 530C36.3 531 72.7 533 109 540C145.3 547 181.7 559 218 560C254.3 561 290.7 551 327 551C363.3 551 399.7 561 436 565C472.3 569 508.7 567 545.2 565C581.7 563 618.3 561 654.8 562C691.3 563 727.7 567 764 569C800.3 571 836.7 571 873 571C909.3 571 945.7 571 982 567C1018.3 563 1054.7 555 1091 555C1127.3 555 1163.7 563 1181.8 567L1200 571L1200 473L1181.8 474C1163.7 475 1127.3 477 1091 481C1054.7 485 1018.3 491 982 488C945.7 485 909.3 473 873 470C836.7 467 800.3 473 764 472C727.7 471 691.3 463 654.8 461C618.3 459 581.7 463 545.2 474C508.7 485 472.3 503 436 504C399.7 505 363.3 489 327 485C290.7 481 254.3 489 218 488C181.7 487 145.3 477 109 474C72.7 471 36.3 475 18.2 477L0 479Z" fill="#f5fdfe"></path><path d="M0 601L18.2 601C36.3 601 72.7 601 109 601C145.3 601 181.7 601 218 601C254.3 601 290.7 601 327 601C363.3 601 399.7 601 436 601C472.3 601 508.7 601 545.2 601C581.7 601 618.3 601 654.8 601C691.3 601 727.7 601 764 601C800.3 601 836.7 601 873 601C909.3 601 945.7 601 982 601C1018.3 601 1054.7 601 1091 601C1127.3 601 1163.7 601 1181.8 601L1200 601L1200 569L1181.8 565C1163.7 561 1127.3 553 1091 553C1054.7 553 1018.3 561 982 565C945.7 569 909.3 569 873 569C836.7 569 800.3 569 764 567C727.7 565 691.3 561 654.8 560C618.3 559 581.7 561 545.2 563C508.7 565 472.3 567 436 563C399.7 559 363.3 549 327 549C290.7 549 254.3 559 218 558C181.7 557 145.3 545 109 538C72.7 531 36.3 529 18.2 528L0 527Z" fill="#f6fdfe"></path></svg>