<svg id="visual" viewBox="0 0 1200 600" width="1200" height="600" xmlns="http://www.w3.org/2000/svg" xmlns:xlink="http://www.w3.org/1999/xlink" version="1.1"><path d="M0 31L18.2 36C36.3 41 72.7 51 109 52C145.3 53 181.7 45 218 45C254.3 45 290.7 53 327 52C363.3 51 399.7 41 436 36C472.3 31 508.7 31 545.2 36C581.7 41 618.3 51 654.8 53C691.3 55 727.7 49 764 46C800.3 43 836.7 43 873 48C909.3 53 945.7 63 982 66C1018.3 69 1054.7 65 1091 63C1127.3 61 1163.7 61 1181.8 61L1200 61L1200 0L1181.8 0C1163.7 0 1127.3 0 1091 0C1054.7 0 1018.3 0 982 0C945.7 0 909.3 0 873 0C836.7 0 800.3 0 764 0C727.7 0 691.3 0 654.8 0C618.3 0 581.7 0 545.2 0C508.7 0 472.3 0 436 0C399.7 0 363.3 0 327 0C290.7 0 254.3 0 218 0C181.7 0 145.3 0 109 0C72.7 0 36.3 0 18.2 0L0 0Z" fill="#d5f6fc"></path><path d="M0 61L18.2 70C36.3 79 72.7 97 109 98C145.3 99 181.7 83 218 80C254.3 77 290.7 87 327 86C363.3 85 399.7 73 436 69C472.3 65 508.7 69 545.2 73C581.7 77 618.3 81 654.8 81C691.3 81 727.7 77 764 78C800.3 79 836.7 85 873 92C909.3 99 945.7 107 982 111C1018.3 115 1054.7 115 1091 111C1127.3 107 1163.7 99 1181.8 95L1200 91L1200 59L1181.8 59C1163.7 59 1127.3 59 1091 61C1054.7 63 1018.3 67 982 64C945.7 61 909.3 51 873 46C836.7 41 800.3 41 764 44C727.7 47 691.3 53 654.8 51C618.3 49 581.7 39 545.2 34C508.7 29 472.3 29 436 34C399.7 39 363.3 49 327 50C290.7 51 254.3 43 218 43C181.7 43 145.3 51 109 50C72.7 49 36.3 39 18.2 34L0 29Z" fill="#dcf8fc"></path><path d="M0 127L18.2 135C36.3 143 72.7 159 109 156C145.3 153 181.7 131 218 125C254.3 119 290.7 129 327 131C363.3 133 399.7 127 436 123C472.3 119 508.7 117 545.2 121C581.7 125 618.3 135 654.8 137C691.3 139 727.7 133 764 130C800.3 127 836.7 127 873 132C909.3 137 945.7 147 982 150C1018.3 153 1054.7 149 1091 144C1127.3 139 1163.7 133 1181.8 130L1200 127L1200 89L1181.8 93C1163.7 97 1127.3 105 1091 109C1054.7 113 1018.3 113 982 109C945.7 105 909.3 97 873 90C836.7 83 800.3 77 764 76C727.7 75 691.3 79 654.8 79C618.3 79 581.7 75 545.2 71C508.7 67 472.3 63 436 67C399.7 71 363.3 83 327 84C290.7 85 254.3 75 218 78C181.7 81 145.3 97 109 96C72.7 95 36.3 77 18.2 68L0 59Z" fill="#e3f9fd"></path><path d="M0 229L18.2 245C36.3 261 72.7 293 109 298C145.3 303 181.7 281 218 267C254.3 253 290.7 247 327 245C363.3 243 399.7 245 436 259C472.3 273 508.7 299 545.2 297C581.7 295 618.3 265 654.8 252C691.3 239 727.7 243 764 252C800.3 261 836.7 275 873 278C909.3 281 945.7 273 982 272C1018.3 271 1054.7 277 1091 280C1127.3 283 1163.7 283 1181.8 283L1200 283L1200 125L1181.8 128C1163.7 131 1127.3 137 1091 142C1054.7 147 1018.3 151 982 148C945.7 145 909.3 135 873 130C836.7 125 800.3 125 764 128C727.7 131 691.3 137 654.8 135C618.3 133 581.7 123 545.2 119C508.7 115 472.3 117 436 121C399.7 125 363.3 131 327 129C290.7 127 254.3 117 218 123C181.7 129 145.3 151 109 154C72.7 157 36.3 141 18.2 133L0 125Z" fill="#eafbfd"></path><path d="M0 289L18.2 304C36.3 319 72.7 349 109 361C145.3 373 181.7 367 218 358C254.3 349 290.7 337 327 327C363.3 317 399.7 309 436 318C472.3 327 508.7 353 545.2 358C581.7 363 618.3 347 654.8 342C691.3 337 727.7 343 764 349C800.3 355 836.7 361 873 365C909.3 369 945.7 371 982 372C1018.3 373 1054.7 373 1091 372C1127.3 371 1163.7 369 1181.8 368L1200 367L1200 281L1181.8 281C1163.7 281 1127.3 281 1091 278C1054.7 275 1018.3 269 982 270C945.7 271 909.3 279 873 276C836.7 273 800.3 259 764 250C727.7 241 691.3 237 654.8 250C618.3 263 581.7 293 545.2 295C508.7 297 472.3 271 436 257C399.7 243 363.3 241 327 243C290.7 245 254.3 251 218 265C181.7 279 145.3 301 109 296C72.7 291 36.3 259 18.2 243L0 227Z" fill="#f1fcfe"></path><path d="M0 481L18.2 486C36.3 491 72.7 501 109 500C145.3 499 181.7 487 218 480C254.3 473 290.7 471 327 469C363.3 467 399.7 465 436 468C472.3 471 508.7 479 545.2 478C581.7 477 618.3 467 654.8 461C691.3 455 727.7 453 764 450C800.3 447 836.7 443 873 451C909.3 459 945.7 479 982 484C1018.3 489 1054.7 479 1091 476C1127.3 473 1163.7 477 1181.8 479L1200 481L1200 365L1181.8 366C1163.7 367 1127.3 369 1091 370C1054.7 371 1018.3 371 982 370C945.7 369 909.3 367 873 363C836.7 359 800.3 353 764 347C727.7 341 691.3 335 654.8 340C618.3 345 581.7 361 545.2 356C508.7 351 472.3 325 436 316C399.7 307 363.3 315 327 325C290.7 335 254.3 347 218 356C181.7 365 145.3 371 109 359C72.7 347 36.3 317 18.2 302L0 287Z" fill="#f2fcfe"></path><path d="M0 559L18.2 557C36.3 555 72.7 551 109 548C145.3 545 181.7 543 218 542C254.3 541 290.7 541 327 537C363.3 533 399.7 525 436 528C472.3 531 508.7 545 545.2 549C581.7 553 618.3 547 654.8 543C691.3 539 727.7 537 764 533C800.3 529 836.7 523 873 526C909.3 529 945.7 541 982 543C1018.3 545 1054.7 537 1091 533C1127.3 529 1163.7 529 1181.8 529L1200 529L1200 479L1181.8 477C1163.7 475 1127.3 471 1091 474C1054.7 477 1018.3 487 982 482C945.7 477 909.3 457 873 449C836.7 441 800.3 445 764 448C727.7 451 691.3 453 654.8 459C618.3 465 581.7 475 545.2 476C508.7 477 472.3 469 436 466C399.7 463 363.3 465 327 467C290.7 469 254.3 471 218 478C181.7 485 145.3 497 109 498C72.7 499 36.3 489 18.2 484L0 479Z" fill="#f3fdfe"></path><path d="M0 577L18.2 577C36.3 577 72.7 577 109 574C145.3 571 181.7 565 218 565C254.3 565 290.7 571 327 570C363.3 569 399.7 561 436 561C472.3 561 508.7 569 545.2 572C581.7 575 618.3 573 654.8 573C691.3 573 727.7 575 764 573C800.3 571 836.7 565 873 565C909.3 565 945.7 571 982 570C1018.3 569 1054.7 561 1091 560C1127.3 559 1163.7 565 1181.8 568L1200 571L1200 527L1181.8 527C1163.7 527 1127.3 527 1091 531C1054.7 535 1018.3 543 982 541C945.7 539 909.3 527 873 524C836.7 521 800.3 527 764 531C727.7 535 691.3 537 654.8 541C618.3 545 581.7 551 545.2 547C508.7 543 472.3 529 436 526C399.7 523 363.3 531 327 535C290.7 539 254.3 539 218 540C181.7 541 145.3 543 109 546C72.7 549 36.3 553 18.2 555L0 557Z" fill="#f5fdfe"></path><path d="M0 601L18.2 601C36.3 601 72.7 601 109 601C145.3 601 181.7 601 218 601C254.3 601 290.7 601 327 601C363.3 601 399.7 601 436 601C472.3 601 508.7 601 545.2 601C581.7 601 618.3 601 654.8 601C691.3 601 727.7 601 764 601C800.3 601 836.7 601 873 601C909.3 601 945.7 601 982 601C1018.3 601 1054.7 601 1091 601C1127.3 601 1163.7 601 1181.8 601L1200 601L1200 569L1181.8 566C1163.7 563 1127.3 557 1091 558C1054.7 559 1018.3 567 982 568C945.7 569 909.3 563 873 563C836.7 563 800.3 569 764 571C727.7 573 691.3 571 654.8 571C618.3 571 581.7 573 545.2 570C508.7 567 472.3 559 436 559C399.7 559 363.3 567 327 568C290.7 569 254.3 563 218 563C181.7 563 145.3 569 109 572C72.7 575 36.3 575 18.2 575L0 575Z" fill="#f6fdfe"></path></svg>