<svg xmlns="http://www.w3.org/2000/svg" xmlns:xlink="http://www.w3.org/1999/xlink" version="1.1" width="1000" height="1000" viewBox="0 0 1000 1000" xml:space="preserve">
<desc>Created with Fabric.js 3.5.0</desc>
<defs>
</defs>
<rect x="0" y="0" width="100%" height="100%" fill="#ffffff"/>
<g transform="matrix(-3.3646 0 0 -3.7917 442.492 -26.259)" id="811039">
<g style="" vector-effect="non-scaling-stroke">
		<g transform="matrix(1 0 0 1 0 -251.5)" id="visual">
<path style="stroke: none; stroke-width: 1; stroke-dasharray: none; stroke-linecap: butt; stroke-dashoffset: 0; stroke-linejoin: miter; stroke-miterlimit: 4; is-custom-font: none; font-file-url: none; fill: rgb(241,252,254); fill-rule: nonzero; opacity: 1;" transform=" translate(-480, -18.5)" d="M 0 28 L 17.8 27.2 C 35.7 26.3 71.3 24.7 106.8 27.3 C 142.3 30 177.7 37 213.2 37 C 248.7 37 284.3 30 320 26.5 C 355.7 23 391.3 23 426.8 21.2 C 462.3 19.3 497.7 15.7 533.2 17.3 C 568.7 19 604.3 26 640 27.8 C 675.7 29.7 711.3 26.3 746.8 24.7 C 782.3 23 817.7 23 853.2 24.7 C 888.7 26.3 924.3 29.7 942.2 31.3 L 960 33 L 960 0 L 942.2 0 C 924.3 0 888.7 0 853.2 0 C 817.7 0 782.3 0 746.8 0 C 711.3 0 675.7 0 640 0 C 604.3 0 568.7 0 533.2 0 C 497.7 0 462.3 0 426.8 0 C 391.3 0 355.7 0 320 0 C 284.3 0 248.7 0 213.2 0 C 177.7 0 142.3 0 106.8 0 C 71.3 0 35.7 0 17.8 0 L 0 0 Z" stroke-linecap="round"/>
</g>
		<g transform="matrix(1 0 0 1 0 -230.8605)" id="visual">
<path style="stroke: none; stroke-width: 1; stroke-dasharray: none; stroke-linecap: butt; stroke-dashoffset: 0; stroke-linejoin: miter; stroke-miterlimit: 4; is-custom-font: none; font-file-url: none; fill: rgb(235,249,252); fill-rule: nonzero; opacity: 1;" transform=" translate(-480, -39.1394)" d="M 0 50 L 17.8 51.7 C 35.7 53.3 71.3 56.7 106.8 59.3 C 142.3 62 177.7 64 213.2 63.2 C 248.7 62.3 284.3 58.7 320 54.2 C 355.7 49.7 391.3 44.3 426.8 40.7 C 462.3 37 497.7 35 533.2 40.3 C 568.7 45.7 604.3 58.3 640 60.2 C 675.7 62 711.3 53 746.8 51.2 C 782.3 49.3 817.7 54.7 853.2 54.7 C 888.7 54.7 924.3 49.3 942.2 46.7 L 960 44 L 960 31 L 942.2 29.3 C 924.3 27.7 888.7 24.3 853.2 22.7 C 817.7 21 782.3 21 746.8 22.7 C 711.3 24.3 675.7 27.7 640 25.8 C 604.3 24 568.7 17 533.2 15.3 C 497.7 13.7 462.3 17.3 426.8 19.2 C 391.3 21 355.7 21 320 24.5 C 284.3 28 248.7 35 213.2 35 C 177.7 35 142.3 28 106.8 25.3 C 71.3 22.7 35.7 24.3 17.8 25.2 L 0 26 Z" stroke-linecap="round"/>
</g>
		<g transform="matrix(1 0 0 1 0 -191.927)" id="visual">
<path style="stroke: none; stroke-width: 1; stroke-dasharray: none; stroke-linecap: butt; stroke-dashoffset: 0; stroke-linejoin: miter; stroke-miterlimit: 4; is-custom-font: none; font-file-url: none; fill: rgb(229,247,250); fill-rule: nonzero; opacity: 1;" transform=" translate(-480, -78.073)" d="M 0 104 L 17.8 100.3 C 35.7 96.7 71.3 89.3 106.8 92.8 C 142.3 96.3 177.7 110.7 213.2 117 C 248.7 123.3 284.3 121.7 320 116.3 C 355.7 111 391.3 102 426.8 98.3 C 462.3 94.7 497.7 96.3 533.2 99.8 C 568.7 103.3 604.3 108.7 640 102.3 C 675.7 96 711.3 78 746.8 70.8 C 782.3 63.7 817.7 67.3 853.2 73.7 C 888.7 80 924.3 89 942.2 93.5 L 960 98 L 960 42 L 942.2 44.7 C 924.3 47.3 888.7 52.7 853.2 52.7 C 817.7 52.7 782.3 47.3 746.8 49.2 C 711.3 51 675.7 60 640 58.2 C 604.3 56.3 568.7 43.7 533.2 38.3 C 497.7 33 462.3 35 426.8 38.7 C 391.3 42.3 355.7 47.7 320 52.2 C 284.3 56.7 248.7 60.3 213.2 61.2 C 177.7 62 142.3 60 106.8 57.3 C 71.3 54.7 35.7 51.3 17.8 49.7 L 0 48 Z" stroke-linecap="round"/>
</g>
		<g transform="matrix(1 0 0 1 0 -150.5467)" id="visual">
<path style="stroke: none; stroke-width: 1; stroke-dasharray: none; stroke-linecap: butt; stroke-dashoffset: 0; stroke-linejoin: miter; stroke-miterlimit: 4; is-custom-font: none; font-file-url: none; fill: rgb(223,244,248); fill-rule: nonzero; opacity: 1;" transform=" translate(-480, -119.4533)" d="M 0 147 L 17.8 138.8 C 35.7 130.7 71.3 114.3 106.8 114.3 C 142.3 114.3 177.7 130.7 213.2 139.7 C 248.7 148.7 284.3 150.3 320 146.7 C 355.7 143 391.3 134 426.8 129.5 C 462.3 125 497.7 125 533.2 126.8 C 568.7 128.7 604.3 132.3 640 127.8 C 675.7 123.3 711.3 110.7 746.8 110.7 C 782.3 110.7 817.7 123.3 853.2 136 C 888.7 148.7 924.3 161.3 942.2 167.7 L 960 174 L 960 96 L 942.2 91.5 C 924.3 87 888.7 78 853.2 71.7 C 817.7 65.3 782.3 61.7 746.8 68.8 C 711.3 76 675.7 94 640 100.3 C 604.3 106.7 568.7 101.3 533.2 97.8 C 497.7 94.3 462.3 92.7 426.8 96.3 C 391.3 100 355.7 109 320 114.3 C 284.3 119.7 248.7 121.3 213.2 115 C 177.7 108.7 142.3 94.3 106.8 90.8 C 71.3 87.3 35.7 94.7 17.8 98.3 L 0 102 Z" stroke-linecap="round"/>
</g>
		<g transform="matrix(1 0 0 1 0 -123.15)" id="visual">
<path style="stroke: none; stroke-width: 1; stroke-dasharray: none; stroke-linecap: butt; stroke-dashoffset: 0; stroke-linejoin: miter; stroke-miterlimit: 4; is-custom-font: none; font-file-url: none; fill: rgb(217,242,246); fill-rule: nonzero; opacity: 1;" transform=" translate(-480, -146.85)" d="M 0 174 L 17.8 169.5 C 35.7 165 71.3 156 106.8 153.3 C 142.3 150.7 177.7 154.3 213.2 161.5 C 248.7 168.7 284.3 179.3 320 176.5 C 355.7 173.7 391.3 157.3 426.8 151 C 462.3 144.7 497.7 148.3 533.2 154.7 C 568.7 161 604.3 170 640 167.3 C 675.7 164.7 711.3 150.3 746.8 147.7 C 782.3 145 817.7 154 853.2 162.2 C 888.7 170.3 924.3 177.7 942.2 181.3 L 960 185 L 960 172 L 942.2 165.7 C 924.3 159.3 888.7 146.7 853.2 134 C 817.7 121.3 782.3 108.7 746.8 108.7 C 711.3 108.7 675.7 121.3 640 125.8 C 604.3 130.3 568.7 126.7 533.2 124.8 C 497.7 123 462.3 123 426.8 127.5 C 391.3 132 355.7 141 320 144.7 C 284.3 148.3 248.7 146.7 213.2 137.7 C 177.7 128.7 142.3 112.3 106.8 112.3 C 71.3 112.3 35.7 128.7 17.8 136.8 L 0 145 Z" stroke-linecap="round"/>
</g>
		<g transform="matrix(1 0 0 1 0 -30.9026)" id="visual">
<path style="stroke: none; stroke-width: 1; stroke-dasharray: none; stroke-linecap: butt; stroke-dashoffset: 0; stroke-linejoin: miter; stroke-miterlimit: 4; is-custom-font: none; font-file-url: none; fill: rgb(211,239,244); fill-rule: nonzero; opacity: 1;" transform=" translate(-480, -239.0974)" d="M 0 244 L 17.8 244.8 C 35.7 245.7 71.3 247.3 106.8 241 C 142.3 234.7 177.7 220.3 213.2 215.8 C 248.7 211.3 284.3 216.7 320 214 C 355.7 211.3 391.3 200.7 426.8 210.7 C 462.3 220.7 497.7 251.3 533.2 259.5 C 568.7 267.7 604.3 253.3 640 239.8 C 675.7 226.3 711.3 213.7 746.8 231.7 C 782.3 249.7 817.7 298.3 853.2 319 C 888.7 339.7 924.3 332.3 942.2 328.7 L 960 325 L 960 183 L 942.2 179.3 C 924.3 175.7 888.7 168.3 853.2 160.2 C 817.7 152 782.3 143 746.8 145.7 C 711.3 148.3 675.7 162.7 640 165.3 C 604.3 168 568.7 159 533.2 152.7 C 497.7 146.3 462.3 142.7 426.8 149 C 391.3 155.3 355.7 171.7 320 174.5 C 284.3 177.3 248.7 166.7 213.2 159.5 C 177.7 152.3 142.3 148.7 106.8 151.3 C 71.3 154 35.7 163 17.8 167.5 L 0 172 Z" stroke-linecap="round"/>
</g>
		<g transform="matrix(1 0 0 1 0 4.1518)" id="visual">
<path style="stroke: none; stroke-width: 1; stroke-dasharray: none; stroke-linecap: butt; stroke-dashoffset: 0; stroke-linejoin: miter; stroke-miterlimit: 4; is-custom-font: none; font-file-url: none; fill: rgb(205,237,242); fill-rule: nonzero; opacity: 1;" transform=" translate(-480, -274.1517)" d="M 0 271 L 17.8 268.3 C 35.7 265.7 71.3 260.3 106.8 254 C 142.3 247.7 177.7 240.3 213.2 241.2 C 248.7 242 284.3 251 320 250.2 C 355.7 249.3 391.3 238.7 426.8 246.8 C 462.3 255 497.7 282 533.2 289.2 C 568.7 296.3 604.3 283.7 640 270.2 C 675.7 256.7 711.3 242.3 746.8 256.7 C 782.3 271 817.7 314 853.2 332 C 888.7 350 924.3 343 942.2 339.5 L 960 336 L 960 323 L 942.2 326.7 C 924.3 330.3 888.7 337.7 853.2 317 C 817.7 296.3 782.3 247.7 746.8 229.7 C 711.3 211.7 675.7 224.3 640 237.8 C 604.3 251.3 568.7 265.7 533.2 257.5 C 497.7 249.3 462.3 218.7 426.8 208.7 C 391.3 198.7 355.7 209.3 320 212 C 284.3 214.7 248.7 209.3 213.2 213.8 C 177.7 218.3 142.3 232.7 106.8 239 C 71.3 245.3 35.7 243.7 17.8 242.8 L 0 242 Z" stroke-linecap="round"/>
</g>
		<g transform="matrix(1 0 0 1 0 37.1834)" id="visual">
<path style="stroke: none; stroke-width: 1; stroke-dasharray: none; stroke-linecap: butt; stroke-dashoffset: 0; stroke-linejoin: miter; stroke-miterlimit: 4; is-custom-font: none; font-file-url: none; fill: rgb(199,234,240); fill-rule: nonzero; opacity: 1;" transform=" translate(-480, -307.1834)" d="M 0 330 L 17.8 322 C 35.7 314 71.3 298 106.8 288.2 C 142.3 278.3 177.7 274.7 213.2 276.5 C 248.7 278.3 284.3 285.7 320 286.5 C 355.7 287.3 391.3 281.7 426.8 292.3 C 462.3 303 497.7 330 533.2 338.2 C 568.7 346.3 604.3 335.7 640 316.8 C 675.7 298 711.3 271 746.8 280 C 782.3 289 817.7 334 853.2 355.7 C 888.7 377.3 924.3 375.7 942.2 374.8 L 960 374 L 960 334 L 942.2 337.5 C 924.3 341 888.7 348 853.2 330 C 817.7 312 782.3 269 746.8 254.7 C 711.3 240.3 675.7 254.7 640 268.2 C 604.3 281.7 568.7 294.3 533.2 287.2 C 497.7 280 462.3 253 426.8 244.8 C 391.3 236.7 355.7 247.3 320 248.2 C 284.3 249 248.7 240 213.2 239.2 C 177.7 238.3 142.3 245.7 106.8 252 C 71.3 258.3 35.7 263.7 17.8 266.3 L 0 269 Z" stroke-linecap="round"/>
</g>
		<g transform="matrix(1 0 0 1 0 102.0028)" id="visual">
<path style="stroke: none; stroke-width: 1; stroke-dasharray: none; stroke-linecap: butt; stroke-dashoffset: 0; stroke-linejoin: miter; stroke-miterlimit: 4; is-custom-font: none; font-file-url: none; fill: rgb(193,232,238); fill-rule: nonzero; opacity: 1;" transform=" translate(-480, -372.0028)" d="M 0 422 L 17.8 425.7 C 35.7 429.3 71.3 436.7 106.8 436.7 C 142.3 436.7 177.7 429.3 213.2 423.8 C 248.7 418.3 284.3 414.7 320 410.2 C 355.7 405.7 391.3 400.3 426.8 409.3 C 462.3 418.3 497.7 441.7 533.2 456.2 C 568.7 470.7 604.3 476.3 640 460.2 C 675.7 444 711.3 406 746.8 400.5 C 782.3 395 817.7 422 853.2 432 C 888.7 442 924.3 435 942.2 431.5 L 960 428 L 960 372 L 942.2 372.8 C 924.3 373.7 888.7 375.3 853.2 353.7 C 817.7 332 782.3 287 746.8 278 C 711.3 269 675.7 296 640 314.8 C 604.3 333.7 568.7 344.3 533.2 336.2 C 497.7 328 462.3 301 426.8 290.3 C 391.3 279.7 355.7 285.3 320 284.5 C 284.3 283.7 248.7 276.3 213.2 274.5 C 177.7 272.7 142.3 276.3 106.8 286.2 C 71.3 296 35.7 312 17.8 320 L 0 328 Z" stroke-linecap="round"/>
</g>
		<g transform="matrix(1 0 0 1 0 179.015)" id="visual">
<path style="stroke: none; stroke-width: 1; stroke-dasharray: none; stroke-linecap: butt; stroke-dashoffset: 0; stroke-linejoin: miter; stroke-miterlimit: 4; is-custom-font: none; font-file-url: none; fill: rgb(187,229,236); fill-rule: nonzero; opacity: 1;" transform=" translate(-480, -449.015)" d="M 0 455 L 17.8 458.5 C 35.7 462 71.3 469 106.8 464.5 C 142.3 460 177.7 444 213.2 438.7 C 248.7 433.3 284.3 438.7 320 437.7 C 355.7 436.7 391.3 429.3 426.8 437.3 C 462.3 445.3 497.7 468.7 533.2 484 C 568.7 499.3 604.3 506.7 640 493.2 C 675.7 479.7 711.3 445.3 746.8 439 C 782.3 432.7 817.7 454.3 853.2 460.7 C 888.7 467 924.3 458 942.2 453.5 L 960 449 L 960 426 L 942.2 429.5 C 924.3 433 888.7 440 853.2 430 C 817.7 420 782.3 393 746.8 398.5 C 711.3 404 675.7 442 640 458.2 C 604.3 474.3 568.7 468.7 533.2 454.2 C 497.7 439.7 462.3 416.3 426.8 407.3 C 391.3 398.3 355.7 403.7 320 408.2 C 284.3 412.7 248.7 416.3 213.2 421.8 C 177.7 427.3 142.3 434.7 106.8 434.7 C 71.3 434.7 35.7 427.3 17.8 423.7 L 0 420 Z" stroke-linecap="round"/>
</g>
		<g transform="matrix(1 0 0 1 0 211.1044)" id="visual">
<path style="stroke: none; stroke-width: 1; stroke-dasharray: none; stroke-linecap: butt; stroke-dashoffset: 0; stroke-linejoin: miter; stroke-miterlimit: 4; is-custom-font: none; font-file-url: none; fill: rgb(180,227,234); fill-rule: nonzero; opacity: 1;" transform=" translate(-480, -481.1044)" d="M 0 519 L 17.8 517.3 C 35.7 515.7 71.3 512.3 106.8 511.5 C 142.3 510.7 177.7 512.3 213.2 514 C 248.7 515.7 284.3 517.3 320 517.3 C 355.7 517.3 391.3 515.7 426.8 514 C 462.3 512.3 497.7 510.7 533.2 514.3 C 568.7 518 604.3 527 640 529.7 C 675.7 532.3 711.3 528.7 746.8 525 C 782.3 521.3 817.7 517.7 853.2 515 C 888.7 512.3 924.3 510.7 942.2 509.8 L 960 509 L 960 447 L 942.2 451.5 C 924.3 456 888.7 465 853.2 458.7 C 817.7 452.3 782.3 430.7 746.8 437 C 711.3 443.3 675.7 477.7 640 491.2 C 604.3 504.7 568.7 497.3 533.2 482 C 497.7 466.7 462.3 443.3 426.8 435.3 C 391.3 427.3 355.7 434.7 320 435.7 C 284.3 436.7 248.7 431.3 213.2 436.7 C 177.7 442 142.3 458 106.8 462.5 C 71.3 467 35.7 460 17.8 456.5 L 0 453 Z" stroke-linecap="round"/>
</g>
		<g transform="matrix(1 0 0 1 0 254)" id="visual">
<path style="stroke: none; stroke-width: 1; stroke-dasharray: none; stroke-linecap: butt; stroke-dashoffset: 0; stroke-linejoin: miter; stroke-miterlimit: 4; is-custom-font: none; font-file-url: none; fill: rgb(174,224,232); fill-rule: nonzero; opacity: 1;" transform=" translate(-480, -524)" d="M 0 541 L 17.8 541 C 35.7 541 71.3 541 106.8 541 C 142.3 541 177.7 541 213.2 541 C 248.7 541 284.3 541 320 541 C 355.7 541 391.3 541 426.8 541 C 462.3 541 497.7 541 533.2 541 C 568.7 541 604.3 541 640 541 C 675.7 541 711.3 541 746.8 541 C 782.3 541 817.7 541 853.2 541 C 888.7 541 924.3 541 942.2 541 L 960 541 L 960 507 L 942.2 507.8 C 924.3 508.7 888.7 510.3 853.2 513 C 817.7 515.7 782.3 519.3 746.8 523 C 711.3 526.7 675.7 530.3 640 527.7 C 604.3 525 568.7 516 533.2 512.3 C 497.7 508.7 462.3 510.3 426.8 512 C 391.3 513.7 355.7 515.3 320 515.3 C 284.3 515.3 248.7 513.7 213.2 512 C 177.7 510.3 142.3 508.7 106.8 509.5 C 71.3 510.3 35.7 513.7 17.8 515.3 L 0 517 Z" stroke-linecap="round"/>
</g>
</g>
</g>
</svg>