<svg id="visual" viewBox="0 0 900 600" width="900" height="600" xmlns="http://www.w3.org/2000/svg" xmlns:xlink="http://www.w3.org/1999/xlink" version="1.1"><rect x="0" y="0" width="900" height="600" fill="#f1fcfe"></rect><path d="M482 600L482.2 594.5C482.3 589 482.7 578 479.3 566.8C476 555.7 469 544.3 458.3 533.2C447.7 522 433.3 511 427.8 500C422.3 489 425.7 478 430 466.8C434.3 455.7 439.7 444.3 442.3 433.2C445 422 445 411 442.2 400C439.3 389 433.7 378 427.7 366.8C421.7 355.7 415.3 344.3 417.7 333.2C420 322 431 311 439.7 300C448.3 289 454.7 278 454.5 266.8C454.3 255.7 447.7 244.3 452.5 233.2C457.3 222 473.7 211 478.5 200C483.3 189 476.7 178 469.2 166.8C461.7 155.7 453.3 144.3 442.8 133.2C432.3 122 419.7 111 427.7 100C435.7 89 464.3 78 468.3 66.8C472.3 55.7 451.7 44.3 438 33.2C424.3 22 417.7 11 414.3 5.5L411 0L900 0L900 5.5C900 11 900 22 900 33.2C900 44.3 900 55.7 900 66.8C900 78 900 89 900 100C900 111 900 122 900 133.2C900 144.3 900 155.7 900 166.8C900 178 900 189 900 200C900 211 900 222 900 233.2C900 244.3 900 255.7 900 266.8C900 278 900 289 900 300C900 311 900 322 900 333.2C900 344.3 900 355.7 900 366.8C900 378 900 389 900 400C900 411 900 422 900 433.2C900 444.3 900 455.7 900 466.8C900 478 900 489 900 500C900 511 900 522 900 533.2C900 544.3 900 555.7 900 566.8C900 578 900 589 900 594.5L900 600Z" fill="#AEE0E8" stroke-linecap="round" stroke-linejoin="miter"></path></svg>